<?xml version="1.0" encoding="UTF-8" standalone="no"?>
<svg
   xmlns:dc="http://purl.org/dc/elements/1.1/"
   xmlns:cc="http://creativecommons.org/ns#"
   xmlns:rdf="http://www.w3.org/1999/02/22-rdf-syntax-ns#"
   xmlns:svg="http://www.w3.org/2000/svg"
   xmlns="http://www.w3.org/2000/svg"
   xmlns:sodipodi="http://sodipodi.sourceforge.net/DTD/sodipodi-0.dtd"
   xmlns:inkscape="http://www.inkscape.org/namespaces/inkscape"
   id="Capa_3"
   data-name="Capa 3"
   viewBox="0 0 75.319984 57.560284"
   version="1.1"
   sodipodi:docname="Cerebro_001.svg"
   inkscape:version="0.92.2 5c3e80d, 2017-08-06"
   width="75.319984mm"
   height="57.560284mm">
  <metadata
     id="metadata13">
    <rdf:RDF>
      <cc:Work
         rdf:about="">
        <dc:format>image/svg+xml</dc:format>
        <dc:type
           rdf:resource="http://purl.org/dc/dcmitype/StillImage" />
        <dc:title>Cerebro</dc:title>
      </cc:Work>
    </rdf:RDF>
  </metadata>
  <sodipodi:namedview
     pagecolor="#ffffff"
     bordercolor="#666666"
     borderopacity="1"
     objecttolerance="10"
     gridtolerance="10"
     guidetolerance="10"
     inkscape:pageopacity="0"
     inkscape:pageshadow="2"
     inkscape:window-width="1439"
     inkscape:window-height="882"
     id="namedview11"
     showgrid="true"
     inkscape:zoom="1.3262566"
     inkscape:cx="18.362747"
     inkscape:cy="76.050545"
     inkscape:window-x="0"
     inkscape:window-y="0"
     inkscape:window-maximized="0"
     inkscape:current-layer="g863"
     borderlayer="true"
     inkscape:document-units="mm"
     inkscape:snap-bbox="true"
     inkscape:snap-global="false"
     fit-margin-top="0"
     fit-margin-left="0"
     fit-margin-right="0"
     fit-margin-bottom="-4.4">
    <inkscape:grid
       id="grid840"
       units="mm"
       type="xygrid"
       empspacing="1"
       spacingy="2.54"
       spacingx="2.54"
       originx="-0.9252076"
       originy="-15.774082" />
  </sodipodi:namedview>
  <defs
     id="defs4">
    <style
       id="style2">.cls-1{fill:#62aeef;}</style>
  </defs>
  <title
     id="title6">Cerebro</title>
  <g
     id="g849"
     sodipodi:insensitive="true"
     inkscape:groupmode="layer"
     inkscape:label="[fixed] BG"
     transform="translate(-0.92520759,-26.565639)">
    <rect
       id="rect847"
       style="fill:#ffffff;fill-opacity:1;stroke:none"
       height="99.900002"
       width="99.900002"
       y="0"
       x="0" />
  </g>
  <g
     inkscape:groupmode="layer"
     id="layer1"
     inkscape:label="Base"
     style="display:none"
     transform="translate(-0.92520759,-26.565639)">
    <path
       class="cls-1"
       d="M 71.046514,87.415308 A 13.325069,13.325069 0 0 1 53.491621,80.333675 c 6.671631,-0.886719 11.981043,-2.65167 15.827539,-5.268163 1.894743,-1.289447 3.082293,-2.564334 3.80647,-3.548094 5.146858,2.290188 10.874769,2.484273 16.6803,0.542219 a 29.766397,29.766397 0 0 0 3.077436,-1.228791 C 92.03425,76.04685 90.000008,79.385092 85.076339,83.613694 80.15268,87.842296 71.754918,87.492942 71.046514,87.415308 Z M 88.51405,68.575834 c -5.450112,1.792848 -10.570282,1.418025 -15.219809,-1.113557 a 1.8340923,1.8340923 0 0 0 -1.576937,-0.121302 c -0.619848,0.253521 -0.821206,0.688999 -1.101427,1.24335 -0.778755,1.534477 -2.338698,2.7475 -3.754295,3.658478 -3.91201,2.518241 -8.670703,3.664545 -13.221969,4.320794 -3.591762,0.516747 -7.651754,-1.112345 -10.267039,-3.510494 A 15.405405,15.405405 0 0 1 28.711976,69.583854 c -2.234399,-2.668652 -2.66138,-6.25071 -1.709157,-8.976377 2.253797,-6.46299 8.425662,-7.724535 8.679185,-7.773059 a 1.819536,1.819536 0 0 0 1.519927,-1.775865 c 0.0073,-0.186807 0.221977,-4.598575 5.14807,-6.533345 4.830265,-1.898386 7.873732,0.493701 8.090873,0.672011 a 1.7831453,1.7831453 0 0 0 2.729297,-0.317808 c 0.177114,-0.223198 2.225907,-2.668657 7.481931,-2.668657 5.511982,0 8.522712,3.590554 8.65372,3.74946 a 1.8562596,1.8562596 0 0 0 2.893061,-2.326581 c -0.162542,-0.203789 -3.9399,-4.825413 -10.852927,-5.120175 -0.134643,-1.819539 -0.01212,-6.598851 4.609499,-8.964251 3.84892,-1.971163 10.134809,-2.36418 13.992222,0.390596 3.060461,2.183442 4.217688,6.037222 3.437711,11.443669 a 1.8547137,1.8547137 0 0 0 0.744796,1.767374 c 0.03646,0.0267 3.616027,2.726881 3.533539,6.186424 -0.04366,1.846225 -1.029854,3.67425 -2.637105,4.892127 -1.652145,1.250628 -4.730803,2.452737 -10.055977,1.119622 A 28.786272,28.786272 0 0 0 66.980452,53.57194 c -6.16823,-0.464587 -11.384228,1.334324 -15.081531,5.185676 -2.199208,2.292616 -4.17037,3.360079 -5.701212,3.085934 -1.881393,-0.337222 -2.911258,-2.638329 -2.942793,-2.700194 a 1.8571398,1.8571398 0 0 0 -3.419515,1.447139 c 0.07155,0.169825 1.797703,4.182506 5.669677,4.900619 a 6.5248561,6.5248561 0 0 0 1.191185,0.109169 c 2.510965,0 5.156562,-1.431366 7.884658,-4.27227 7.080427,-7.383678 18.968055,-2.540069 19.082089,-2.496401 a 1.6327303,1.6327303 0 0 0 0.259581,0.08734 c 6.828105,1.749178 11.021539,0.0267 13.337194,-1.726133 2.501261,-1.894744 4.036949,-4.797514 4.1073,-7.763355 0.09704,-4.103659 -2.707466,-7.206577 -4.184931,-8.551824 0.840623,-7.896783 -2.262289,-11.941006 -5.085,-13.957051 -4.195847,-2.999811 -10.137233,-3.18904 -14.781902,-1.864421 -1.322203,-2.4588 -4.523376,-7.382462 -9.808512,-9.382739 -6.643742,-2.512173 -12.685812,-1.012875 -16.12109,3.893807 -2.601945,-0.582252 -8.272823,-1.3877 -12.987854,1.185124 -3.016789,1.64486 -5.094693,4.34869 -6.197332,8.035073 a 9.8594593,9.8594593 0 0 0 -4.814503,-0.492487 c -6.904525,1.03107 -9.8570329,6.697105 -9.2056404,11.766331 0.6404872,4.973401 4.8581664,9.946798 12.6009014,9.111024 A 1.8563764,1.8563764 0 1 0 20.382131,45.48106 c -5.28757,0.571338 -8.08844,-2.547347 -8.517855,-5.89408 -0.408785,-3.170845 1.317346,-6.905745 6.065123,-7.614153 7.256309,-1.084445 13.106724,11.443673 15.251355,17.733204 -2.547347,0.91825 -7.070723,3.275163 -9.356055,8.81383 l -0.03029,0.04369 C 7.5884153,60.395195 -0.08154576,49.690258 0.63657266,38.726944 1.1678732,30.610604 6.9442929,23.554443 13.922825,20.451527 a 19.965162,19.965162 0 0 1 24.602552,-9.335433 23.013491,23.013491 0 0 1 27.778248,2.531581 h 0.09098 c 12.09749,0 22.272326,8.071462 25.230891,19.021429 4.455439,4.591297 7.190805,10.803194 7.190805,17.642225 0,5.40766 -1.783132,11.637752 -5.499843,15.718366 -1.107486,1.222728 -3.26182,2.041518 -4.801144,2.547351 z M 57.619541,38.735438 c -3.039832,0.522814 -5.043751,1.735837 -6.203401,2.692916 -1.916574,-1.027435 -5.598104,-2.256225 -10.423513,-0.363909 -2.689269,1.056545 -4.414189,2.644394 -5.521685,4.245589 A 55.890079,55.890079 0 0 0 32.273404,38.72816 C 29.98565,34.759147 27.68818,32.196028 25.516862,30.59241 a 1.9238561,1.9238561 0 0 0 0.121303,-0.325091 c 0.792115,-2.969482 2.272003,-5.012214 4.524588,-6.247073 4.796286,-2.628623 11.443663,-0.564057 11.506744,-0.543434 a 1.8559267,1.8559267 0 0 0 2.194361,-0.870955 c 2.321724,-4.207978 6.931213,-5.501061 12.329181,-3.458329 3.90471,1.477463 6.47511,5.229344 7.654168,7.320599 -5.48287,3.054394 -6.498163,8.787148 -6.226444,12.274592 z"
       id="path8"
       inkscape:connector-curvature="0"
       style="fill:#62aeef;stroke-width:0.1213024" />
  </g>
  <g
     id="g851"
     inkscape:groupmode="layer"
     inkscape:label="Edge.Cuts"
     style="display:inline"
     transform="translate(-0.92520759,-26.565639)">
    <path
       style="display:inline;fill:none;stroke:#000000;stroke-width:0.30549076;stroke-miterlimit:4;stroke-dasharray:none;stroke-opacity:1"
       d="m 39.57401,26.719745 c -0.102671,-0.0015 -0.205365,-0.0018 -0.308087,-7.01e-4 -0.102708,6.72e-4 -0.205438,0.0029 -0.308164,0.0058 -0.102724,0.0032 -0.205453,0.0073 -0.308163,0.01023 -0.102709,0.0053 -0.205416,0.0099 -0.308092,0.01561 -0.102681,0.0077 -0.205329,0.01299 -0.307944,0.02079 -0.102618,0.0099 -0.205198,0.01675 -0.307726,0.02634 -0.102531,0.01 -0.205008,0.02019 -0.307428,0.03187 -0.102417,0.0114 -0.204779,0.02399 -0.307056,0.03706 -0.102291,0.01319 -0.204502,0.02735 -0.306618,0.04247 -0.102129,0.01513 -0.204157,0.0313 -0.306103,0.04823 -0.101928,0.017 -0.20377,0.03458 -0.305499,0.05371 -0.101732,0.01875 -0.203345,0.03858 -0.30484,0.05884 -0.101494,0.02051 -0.202866,0.04189 -0.3041,0.0643 -0.10123,0.02233 -0.202336,0.04583 -0.303286,0.07001 -0.10095,0.02434 -0.201752,0.04921 -0.302384,0.07542 -0.100656,0.02612 -0.201126,0.05309 -0.301449,0.08082 -0.100302,0.0278 -0.200441,0.05659 -0.300387,0.0864 -0.09995,0.02959 -0.199722,0.06036 -0.299289,0.09193 -0.09957,0.03169 -0.198934,0.06399 -0.298096,0.09737 -0.09917,0.03355 -0.198112,0.06764 -0.296835,0.102892 -0.09875,0.03507 -0.197238,0.07156 -0.295513,0.108415 -0.09827,0.03688 -0.196311,0.07495 -0.294102,0.113949 -0.09779,0.03907 -0.195336,0.07883 -0.292616,0.119468 -0.09727,0.04093 -0.194312,0.08233 -0.29106,0.125016 -0.09672,0.04237 -0.193243,0.08623 -0.289434,0.130563 -0.09614,0.04424 -0.192112,0.08976 -0.28773,0.136122 -0.09557,0.04645 -0.190946,0.0936 -0.28595,0.141675 -0.09494,0.04837 -0.189724,0.09721 -0.284097,0.147236 -0.09435,0.04977 -0.188446,0.100952 -0.282179,0.152821 -0.09378,0.05165 -0.187112,0.104669 -0.280168,0.158396 -0.09312,0.0539 -0.18575,0.108391 -0.278098,0.163987 -0.09239,0.05581 -0.184333,0.112127 -0.275944,0.169578 -0.223908,-0.08359 -0.448655,-0.161339 -0.674101,-0.233698 -0.225438,-0.07214 -0.451576,-0.139199 -0.678232,-0.200565 -0.226657,-0.06157 -0.453827,-0.117276 -0.681369,-0.167783 -0.227544,-0.05038 -0.455453,-0.09555 -0.683566,-0.135386 -0.228105,-0.03989 -0.456422,-0.07403 -0.684763,-0.103332 -0.228344,-0.02896 -0.456731,-0.05311 -0.684992,-0.07165 -0.228265,-0.01869 -0.456402,-0.03218 -0.684257,-0.04061 -0.227861,-0.0099 -0.455427,-0.01132 -0.682545,-0.0099 -0.22712,0.0026 -0.453792,0.0099 -0.679859,0.02097 -0.226057,0.01186 -0.451512,0.02899 -0.676187,0.05115 -0.224687,0.02194 -0.448586,0.04908 -0.671556,0.08101 -0.222972,0.03209 -0.445011,0.06904 -0.665957,0.110582 -0.220942,0.04162 -0.440784,0.08823 -0.659367,0.139663 -0.218586,0.0512 -0.435913,0.10751 -0.651815,0.168377 -0.21591,0.06106 -0.430385,0.126462 -0.643284,0.196726 -0.21291,0.07046 -0.424221,0.145165 -0.633794,0.224688 -0.20957,0.0794 -0.417395,0.163645 -0.623298,0.252302 -0.205925,0.08859 -0.409934,0.181861 -0.61187,0.279536 -0.20194,0.09767 -0.401808,0.199835 -0.599439,0.306408 -0.197638,0.106572 -0.393035,0.217558 -0.586047,0.332904 -0.193015,0.115344 -0.383631,0.23504 -0.571674,0.359016 -0.188051,0.124 -0.373557,0.252285 -0.556332,0.384803 -0.18279,0.132509 -0.362848,0.269256 -0.540018,0.410173 -0.177182,0.140922 -0.351483,0.286002 -0.522739,0.435201 -0.171253,0.149196 -0.339463,0.302495 -0.504471,0.45985 -0.165001,0.15735 -0.3268,0.318744 -0.485231,0.484129 -0.158425,0.165386 -0.313484,0.334751 -0.465021,0.508048 -0.151532,0.17329 -0.299533,0.350504 -0.443844,0.531584 -0.144305,0.181081 -0.284923,0.366023 -0.421684,0.55476 -0.136754,0.188744 -0.269669,0.381289 -0.398563,0.577565 -0.128885,0.196273 -0.253763,0.3963 -0.374448,0.599996 -0.120687,0.203702 -0.237205,0.411075 -0.349377,0.622068 -0.166551,0.07388 -0.33221,0.151063 -0.496872,0.230946 -0.164669,0.07973 -0.328343,0.162649 -0.490924,0.248222 -0.162595,0.08571 -0.324095,0.173978 -0.4844202,0.265114 -0.1603318,0.09123 -0.3194699,0.185044 -0.4773418,0.281609 -0.1578765,0.0964 -0.3144736,0.195706 -0.469705,0.297565 -0.155232,0.101795 -0.3090856,0.206254 -0.4614879,0.313272 -0.1524034,0.107053 -0.3033365,0.216604 -0.4527224,0.328633 -0.1493804,0.112035 -0.2972055,0.226541 -0.4433803,0.343463 -0.1461746,0.116865 -0.2907,0.236182 -0.4334788,0.357851 -0.1427798,0.121686 -0.2838149,0.245696 -0.4230113,0.371977 -0.1391953,0.12616 -0.276553,0.254712 -0.4119767,0.385475 -0.1354236,0.130749 -0.2689151,0.263715 -0.4003784,0.398824 -0.1314624,0.135119 -0.2608993,0.27237 -0.3882131,0.411692 -0.1273145,0.139307 -0.2525072,0.280692 -0.3754844,0.424094 -0.122977,0.143402 -0.2437383,0.288802 -0.36219,0.436141 -0.1184507,0.147345 -0.2345913,0.296618 -0.3483283,0.447761 -0.113737,0.151136 -0.2250693,0.304153 -0.3339033,0.458961 -0.1088336,0.15482 -0.2151691,0.311439 -0.3189131,0.469787 -0.1037421,0.158345 -0.2048927,0.318437 -0.3033555,0.480195 -0.098461,0.161754 -0.19424,0.325175 -0.2872353,0.490197 -0.092998,0.165018 -0.1832086,0.331638 -0.2705479,0.499794 -0.087334,0.168151 -0.1718019,0.337837 -0.253296,0.508994 -0.081505,0.171149 -0.1600172,0.343765 -0.2354778,0.517781 -0.075477,0.174016 -0.147857,0.349426 -0.2170961,0.526171 -0.069223,0.176736 -0.1353191,0.354813 -0.1981471,0.534152 -0.062838,0.179334 -0.1224042,0.359929 -0.1786348,0.541717 -0.056206,0.181789 -0.109112,0.364779 -0.1585553,0.548888 -0.049417,0.184123 -0.095439,0.369362 -0.1379108,0.55567 -0.042487,0.186305 -0.081413,0.373668 -0.1167017,0.562025 -0.03528,0.188353 -0.06696,0.377705 -0.094928,0.567975 -0.027972,0.190273 -0.052196,0.381482 -0.07261,0.573536 -0.02043,0.192064 -0.03702,0.384982 -0.049674,0.578689 -0.017123,0.26166 -0.027037,0.521911 -0.029993,0.780596 -0.00323,0.258692 0.0013,0.515813 0.01174,0.77121 0.010723,0.255388 0.028144,0.509058 0.051977,0.760827 0.023832,0.251773 0.054125,0.501648 0.090629,0.749471 0.036489,0.24782 0.07914,0.49358 0.1277017,0.737131 0.048571,0.24354 0.1030687,0.484863 0.1632208,0.723804 0.060134,0.238941 0.1259658,0.475493 0.1971751,0.709501 0.071197,0.234005 0.1478201,0.465464 0.229567,0.694205 0.081737,0.228744 0.1686322,0.45478 0.2603933,0.677942 0.091757,0.223155 0.1884011,0.443439 0.2896564,0.660684 0.1012555,0.217235 0.2071275,0.431441 0.3173558,0.64244 0.1102281,0.211 0.2248126,0.418801 0.3434915,0.623227 0.1186795,0.204432 0.241454,0.40549 0.3680632,0.603023 0.1266095,0.197537 0.2570538,0.391537 0.3910715,0.581839 0.1340184,0.190311 0.2716101,0.37693 0.4125159,0.55967 0.1409057,0.182755 0.2851241,0.36165 0.4323957,0.536522 0.1472723,0.174875 0.2975964,0.345722 0.4507141,0.512389 0.1531171,0.166663 0.3090255,0.329146 0.4674654,0.487276 0.1584408,0.158133 0.3194123,0.311899 0.4826554,0.461159 0.1632427,0.149273 0.3287569,0.294024 0.4962805,0.434096 0.1675247,0.140072 0.3370585,0.27547 0.5083425,0.406029 0.1712841,0.130557 0.3443175,0.256267 0.5188403,0.376978 0.1745223,0.120711 0.3505301,0.236422 0.5277689,0.346956 0.1772364,0.110536 0.3556992,0.215899 0.5351389,0.315935 0.1794438,0.100041 0.3598347,0.194744 0.5409586,0.283949 0.181099,0.0891 0.3629213,0.172914 0.5451899,0.250964 0.1822669,0.07823 0.3649819,0.150446 0.5478749,0.217008 0.1829,0.06639 0.365981,0.127307 0.548986,0.182066 0.183008,0.05489 0.365945,0.103529 0.548542,0.146143 0.182593,0.04238 0.364856,0.07904 0.546529,0.109232 0.181668,0.03016 0.362727,0.05417 0.542942,0.07143 0.180215,0.01751 0.359575,0.02812 0.537814,0.03263 0.07941,0.01327 0.160355,0.02468 0.242384,0.03369 0.08186,0.01 0.165246,0.01624 0.249549,0.02102 0.08442,0.0067 0.169704,0.0099 0.256079,0.01022 0.08643,0.0021 0.17373,0.0021 0.261963,1.42e-4 0.08817,-0.0019 0.177341,-0.0057 0.267206,-0.0099 0.08981,-0.0054 0.180515,-0.01 0.271817,-0.01598 0.09137,-0.0083 0.183251,-0.01348 0.275767,-0.02157 0.09254,-0.0099 0.18558,-0.01713 0.279101,-0.02644 0.09359,-0.01 0.187473,-0.01937 0.281787,-0.02996 0.09428,-0.01068 0.188937,-0.02107 0.283814,-0.0323 0.0948,-0.01103 0.189993,-0.02188 0.285216,-0.03332 0.09517,-0.01117 0.190607,-0.02182 0.28599,-0.03291 0.09532,-0.01088 0.190788,-0.02098 0.286103,-0.03125 0.09525,-0.01011 0.190547,-0.01915 0.285587,-0.02797 0.09495,-0.0099 0.189874,-0.01687 0.284427,-0.02407 0.09448,-0.0093 0.188777,-0.01311 0.282625,-0.01852 0.09387,-0.0066 0.187259,-0.0099 0.280175,-0.01148 0.09297,-0.0034 0.185316,-0.005 0.277095,-0.0046 0.09184,3.36e-4 0.182944,0.0029 0.273372,0.0077 0.09044,0.0048 0.180144,0.0099 0.269019,0.01667 0.08878,0.0097 0.176912,0.01699 0.263999,0.02831 0.08702,0.01145 0.173253,0.02568 0.258361,0.04152 0.08516,0.01641 0.169176,0.03461 0.252082,0.05626 0.08292,0.02109 0.164662,0.04514 0.245153,0.07172 0.08039,0.02658 0.159724,0.05638 0.237578,0.08884 0.07803,0.03284 0.154362,0.06847 0.22939,0.107263 0.07493,0.03912 0.148556,0.08106 0.220521,0.126872 0.07183,0.04586 0.142347,0.0948 0.211045,0.147755 0.06892,0.05293 0.135704,0.109456 0.200913,0.169933 0.06499,0.06056 0.128632,0.124893 0.19015,0.193407 0.06169,0.06872 0.121126,0.141151 0.178733,0.21814 0.05737,0.07712 0.113207,0.158284 0.166689,0.244154 -0.019,0.06996 -0.03746,0.139967 -0.05518,0.210434 -0.01772,0.07071 -0.03404,0.141252 -0.04983,0.212313 -0.01608,0.0713 -0.03107,0.142425 -0.04494,0.214042 -0.01392,0.07164 -0.02718,0.143489 -0.03991,0.215589 -0.01215,0.07191 -0.02405,0.144436 -0.03426,0.216985 -0.01081,0.07228 -0.02012,0.145287 -0.02883,0.218208 -0.0099,0.07274 -0.01675,0.146022 -0.02367,0.219273 -0.009,0.07314 -0.01267,0.146647 -0.01801,0.220168 -0.0065,0.07338 -0.0099,0.147175 -0.01175,0.220912 -0.0039,0.07363 -0.0066,0.147576 -0.0079,0.221486 -0.0013,0.07374 -0.0013,0.147872 3.8e-5,0.221885 0.0014,0.07384 0.0041,0.148063 0.0081,0.222138 0.0041,0.07388 0.0095,0.148142 0.01231,0.222218 0.0069,0.0739 0.01142,0.148114 0.01886,0.222125 0.0097,0.07384 0.01611,0.147989 0.02574,0.221889 0.01,0.07375 0.02018,0.147735 0.03229,0.221478 0.01171,0.07358 0.02497,0.147385 0.03914,0.220896 0.01393,0.0734 0.02922,0.14692 0.0461,0.220171 0.01663,0.07315 0.03406,0.146341 0.05299,0.219265 0.01885,0.07274 0.03901,0.145654 0.06004,0.218191 0.02107,0.07229 0.04354,0.144874 0.06725,0.216972 0.02386,0.07194 0.04875,0.143973 0.07462,0.215582 0.0263,0.07162 0.05385,0.142956 0.0822,0.214014 0.02854,0.07133 0.05854,0.14184 0.08993,0.212297 0.03147,0.07071 0.06392,0.140616 0.09774,0.210421 0.0339,0.0699 0.06925,0.139272 0.105648,0.208362 0.03635,0.06927 0.07421,0.137825 0.113671,0.206163 0.03939,0.0685 0.07967,0.136266 0.121819,0.203782 0.04175,0.06743 0.08542,0.134607 0.130076,0.201243 0.04462,0.06647 0.09096,0.132828 0.13847,0.19854 0.04775,0.06561 0.09652,0.13095 0.146993,0.195676 0.05028,0.06449 0.102288,0.128954 0.155618,0.192644 0.0943,0.08665 0.18972,0.171544 0.286329,0.254713 0.09657,0.08324 0.194367,0.164604 0.29323,0.244287 0.09887,0.07953 0.198825,0.157616 0.29984,0.233785 0.101022,0.0764 0.203096,0.150589 0.306181,0.223228 0.103086,0.07238 0.207184,0.14351 0.312244,0.212591 0.10506,0.06927 0.211071,0.136394 0.318013,0.201903 0.10694,0.06537 0.214798,0.129229 0.323526,0.191144 0.108726,0.06206 0.218322,0.122022 0.328738,0.180312 0.110423,0.05817 0.221656,0.11477 0.333683,0.169428 0.112022,0.05473 0.224818,0.107463 0.338335,0.158455 0.11353,0.05084 0.227793,0.100129 0.342723,0.147437 0.11494,0.04744 0.230566,0.09279 0.346821,0.136344 0.116262,0.04342 0.233161,0.08541 0.350645,0.125176 0.117486,0.03998 0.235567,0.07801 0.354191,0.113967 0.118613,0.03593 0.237781,0.07056 0.357442,0.102669 0.119659,0.03246 0.239835,0.063 0.360444,0.0914 0.120604,0.02837 0.241668,0.05537 0.363124,0.07973 0.121462,0.02483 0.243338,0.04769 0.36556,0.0686 0.122224,0.02072 0.244811,0.03995 0.3677,0.05671 0.122895,0.01713 0.246092,0.03223 0.369566,0.04524 0.12347,0.013 0.247199,0.02447 0.371147,0.03357 0.123951,0.0099 0.248113,0.01665 0.372453,0.02156 0.12434,0.0069 0.248853,0.01 0.373477,0.01016 0.124633,0.0018 0.249392,7.08e-4 0.374231,-0.0025 0.124832,-0.0034 0.249747,-0.0095 0.374687,-0.01369 0.124942,-0.0087 0.249912,-0.0153 0.374876,-0.02608 0.12496,-0.01085 0.249902,-0.02351 0.374785,-0.03806 0.124875,-0.01456 0.249695,-0.03156 0.374404,-0.04991 0.124707,-0.01874 0.249314,-0.03967 0.373757,-0.06247 0.124449,-0.02289 0.248737,-0.0479 0.372826,-0.0744 0.124086,-0.02673 0.247973,-0.05612 0.371611,-0.08692 0.123633,-0.03125 0.24702,-0.06401 0.370117,-0.09938 0.04838,0.04396 0.09693,0.08801 0.14638,0.131711 0.04932,0.04347 0.09948,0.08691 0.15011,0.130092 0.0505,0.04294 0.101876,0.08597 0.15369,0.128358 0.05159,0.04225 0.1042,0.08477 0.157133,0.126528 0.05301,0.04171 0.106431,0.0835 0.16045,0.124594 0.05418,0.04127 0.108567,0.08188 0.163615,0.122537 0.05522,0.04074 0.110619,0.08056 0.166666,0.120377 0.0562,0.03988 0.112574,0.07916 0.169561,0.11812 0.05679,0.03914 0.114433,0.07766 0.172319,0.115751 0.05771,0.03834 0.116214,0.07613 0.174952,0.113272 0.0586,0.03723 0.117882,0.07404 0.17743,0.110688 0.05934,0.03629 0.11948,0.07219 0.179783,0.107995 0.06032,0.03542 0.120988,0.07085 0.182014,0.105198 0.06123,0.03433 0.122388,0.06892 0.184079,0.102288 0.06186,0.03373 0.123707,0.06651 0.186024,0.09929 0.06246,0.03278 0.12494,0.06441 0.187838,0.0961 0.06312,0.03169 0.126065,0.06264 0.18949,0.09299 0.06363,0.03052 0.127117,0.06031 0.191037,0.08951 0.06394,0.02908 0.128066,0.05789 0.192423,0.08624 0.06417,0.02798 0.128923,0.05592 0.193678,0.08255 0.06451,0.02668 0.129692,0.05342 0.194804,0.079 0.06487,0.02589 0.130376,0.05064 0.195794,0.07514 0.06524,0.02458 0.130954,0.04844 0.196627,0.07155 0.06553,0.02327 0.131456,0.04568 0.197342,0.0672 0.06575,0.02154 0.131866,0.0427 0.19792,0.06349 0.06589,0.02027 0.132169,0.04027 0.198344,0.05891 0.06604,0.01888 0.132402,0.0371 0.198652,0.05486 0.06609,0.01773 0.132536,0.03414 0.198821,0.05018 0.06613,0.01624 0.132573,0.03149 0.198841,0.04604 0.06611,0.01435 0.13252,0.02812 0.198726,0.04131 0.06605,0.01285 0.132378,0.02535 0.19848,0.0363 0.06593,0.01138 0.132145,0.02171 0.198098,0.0318 0.01656,0.03989 0.03293,0.0788 0.0489,0.116848 0.01636,0.03832 0.03243,0.07562 0.04854,0.112209 0.01623,0.03646 0.03209,0.07235 0.04808,0.107869 0.01609,0.03508 0.03186,0.06997 0.0476,0.103812 0.01596,0.03391 0.03166,0.06714 0.04728,0.100049 0.01588,0.03299 0.03149,0.06467 0.04711,0.09651 0.01582,0.0318 0.03142,0.06296 0.04705,0.09346 0.01581,0.03078 0.03142,0.06092 0.04705,0.09048 0.01583,0.02957 0.03149,0.05879 0.04718,0.08777 0.01591,0.02871 0.03162,0.05713 0.04738,0.08565 0.016,0.02799 0.0318,0.05615 0.04774,0.08361 0.01613,0.02729 0.032,0.05489 0.04823,0.0816 0.01627,0.02683 0.03236,0.05393 0.04868,0.08013 0.01645,0.02647 0.03286,0.05296 0.04901,0.07917 0.01665,0.02627 0.03332,0.05213 0.04961,0.07839 0.0169,0.02614 0.03372,0.0516 0.05055,0.07774 0.01714,0.02602 0.03407,0.05136 0.05141,0.07742 0.01752,0.02598 0.03465,0.05131 0.0526,0.07742 0.01797,0.02596 0.03554,0.05144 0.05394,0.07766 0.01836,0.02605 0.03629,0.05175 0.05513,0.07829 0.01866,0.02626 0.03721,0.0524 0.05639,0.079 0.01891,0.02648 0.03843,0.05333 0.05754,0.07996 0.01926,0.02673 0.0394,0.05423 0.05907,0.08141 0.0198,0.02721 0.04055,0.05538 0.06112,0.08333 0.02048,0.02792 0.04136,0.05645 0.06283,0.08532 0.02102,0.02859 0.04245,0.05779 0.06428,0.0874 0.02158,0.02943 0.04377,0.05941 0.06625,0.09008 0.02244,0.03061 0.04532,0.06163 0.06867,0.09304 0.02335,0.03166 0.04688,0.06369 0.07083,0.09608 0.02406,0.03281 0.04839,0.06565 0.07263,0.09959 0.02478,0.03383 0.04946,0.06835 0.07513,0.103294 0.02571,0.03485 0.05117,0.07107 0.07772,0.107323 0.02631,0.03629 0.0531,0.0735 0.08,0.111524 0.02687,0.03792 0.05478,0.07657 0.08254,0.115509 0.02782,0.03928 0.05639,0.07894 0.08505,0.119171 0.02855,0.04053 0.05763,0.08104 0.08716,0.122502 0.02929,0.04136 0.05913,0.0833 0.08945,0.125526 0.03024,0.04206 0.06095,0.08511 0.09176,0.128215 0.03116,0.04304 0.06234,0.08666 0.09384,0.130575 0.03175,0.04373 0.06368,0.08806 0.09574,0.132627 0.03239,0.0443 0.06456,0.08923 0.09772,0.134353 0.03312,0.04499 0.06591,0.09029 0.09959,0.135743 0.03362,0.04553 0.06713,0.09113 0.101357,0.136823 0.03402,0.04592 0.06863,0.09171 0.103055,0.137575 0.0344,0.04617 0.06967,0.09202 0.104682,0.137998 0.03494,0.04626 0.07082,0.09216 0.10623,0.138112 0.03557,0.04626 0.07157,0.09205 0.107706,0.137892 0.036,0.04609 0.07225,0.09176 0.109113,0.137352 0.0364,0.0458 0.07323,0.09125 0.110412,0.136484 0.03682,0.04536 0.07405,0.09044 0.111667,0.135307 0.03735,0.04477 0.07495,0.08939 0.11283,0.13379 0.03784,0.0441 0.07592,0.08827 0.11392,0.131964 0.0383,0.04349 0.07666,0.08684 0.11493,0.129792 0.03869,0.04271 0.07728,0.08543 0.115881,0.127325 0.03895,0.0418 0.07781,0.08365 0.116732,0.124534 0.03919,0.04112 0.07839,0.08138 0.117514,0.121388 0.03942,0.04005 0.07879,0.07916 0.118224,0.117953 0.03963,0.0389 0.07908,0.07693 0.118857,0.114169 0.03985,0.03731 0.07939,0.07393 0.119411,0.110088 0.04002,0.03585 0.07971,0.07146 0.119888,0.105657 0.04021,0.03427 0.07999,0.06821 0.120293,0.100923 0.04037,0.03303 0.08024,0.06453 0.120613,0.09581 0.04048,0.03131 0.08046,0.06148 0.120877,0.09048 0.04057,0.02901 0.0806,0.05726 0.121035,0.08486 0.08066,0.0547 0.162478,0.1083 0.24521,0.161262 0.08271,0.05303 0.166455,0.105108 0.251138,0.156397 0.08477,0.05114 0.170343,0.101717 0.256935,0.151238 0.08671,0.04932 0.174128,0.09814 0.262576,0.145787 0.08839,0.04785 0.17783,0.09432 0.268102,0.140021 0.09026,0.04584 0.181434,0.09036 0.273465,0.133979 0.0921,0.04347 0.184951,0.08628 0.278713,0.127633 0.0938,0.04145 0.188369,0.08164 0.283805,0.120989 0.09537,0.03933 0.191703,0.07734 0.288772,0.114042 0.09704,0.0366 0.194935,0.07221 0.293587,0.106809 0.09866,0.03423 0.198084,0.06738 0.298274,0.09929 0.100189,0.03191 0.201138,0.06241 0.302823,0.09151 0.101688,0.02893 0.204103,0.05676 0.307228,0.08341 0.10313,0.02634 0.206971,0.05119 0.311498,0.07476 0.10453,0.02375 0.20975,0.04572 0.315636,0.06598 0.105882,0.02045 0.212434,0.03977 0.319617,0.05697 0.107192,0.01771 0.215027,0.03365 0.323486,0.04808 0.108453,0.01414 0.217519,0.02688 0.327187,0.03839 0.109676,0.01114 0.219933,0.02043 0.330776,0.02814 0.110843,0.01 0.222255,0.01364 0.334214,0.0183 0.111964,0.0056 0.224477,0.009 0.337517,0.0099 0.113039,7.5e-4 0.226608,-2.88e-4 0.340681,-0.0042 0.114066,-0.0038 0.228648,-0.0099 0.343705,-0.01409 0.115057,-0.0087 0.230592,-0.01523 0.346589,-0.02578 0.115999,-0.01073 0.232458,-0.02304 0.349346,-0.03729 0.116899,-0.01425 0.234218,-0.03109 0.351963,-0.04919 0.117736,-0.01862 0.235885,-0.03918 0.354421,-0.06181 0.118542,-0.02264 0.237471,-0.04747 0.356767,-0.07403 0.119292,-0.02672 0.23895,-0.05611 0.358956,-0.08706 0.119998,-0.0314 0.240356,-0.06437 0.361015,-0.100283 0.120665,-0.03556 0.241657,-0.07343 0.362941,-0.113756 0.121287,-0.04042 0.242864,-0.08265 0.364716,-0.12753 0.01707,0.0024 0.03968,0.0051 0.06763,0.0079 0.02797,0.0028 0.06187,0.0057 0.100524,0.0086 0.03899,0.0029 0.08283,0.0058 0.131805,0.0084 0.04895,0.0027 0.102905,0.0052 0.161529,0.0074 0.05846,0.0022 0.12195,0.004 0.1897,0.0054 0.06774,0.0014 0.139938,0.0023 0.216299,0.0026 0.07659,2.15e-4 0.156905,-4.7e-5 0.241348,-0.0012 0.08453,-0.0011 0.172818,-0.003 0.264833,-0.0058 0.09208,-0.0028 0.18768,-0.0065 0.286745,-0.0099 0.09907,-0.0048 0.201522,-0.0099 0.307118,-0.01337 0.10559,-0.0071 0.214311,-0.01159 0.325911,-0.01897 0.111595,-0.0096 0.226061,-0.01598 0.343142,-0.0256 0.117083,-0.01 0.23678,-0.02012 0.358822,-0.03238 0.122047,-0.01179 0.246455,-0.02547 0.372949,-0.03998 0.126488,-0.0145 0.255067,-0.0308 0.385489,-0.04837 0.13042,-0.0177 0.262663,-0.03633 0.396489,-0.05686 0.133817,-0.02052 0.26921,-0.04263 0.405918,-0.06651 0.136699,-0.02411 0.274712,-0.04938 0.413784,-0.07714 0.139072,-0.02723 0.279194,-0.05659 0.420099,-0.08797 0.140911,-0.03146 0.282607,-0.06428 0.424841,-0.09971 0.142235,-0.03507 0.285005,-0.07232 0.428038,-0.112054 0.143032,-0.03959 0.286341,-0.08104 0.42965,-0.125083 0.143319,-0.04374 0.286651,-0.09014 0.429726,-0.138783 0.143077,-0.04881 0.285902,-0.09965 0.42822,-0.153172 0.142326,-0.05376 0.284129,-0.109556 0.425173,-0.168223 0.141037,-0.05848 0.281303,-0.119942 0.420541,-0.183964 0.139238,-0.06392 0.277451,-0.130772 0.414368,-0.200383 0.136923,-0.06978 0.272551,-0.142059 0.406627,-0.217481 0.134071,-0.07545 0.266598,-0.153792 0.397316,-0.235244 0.130713,-0.08135 0.259626,-0.165987 0.386459,-0.253703 0.126842,-0.08762 0.251596,-0.17862 0.374035,-0.272828 0.122427,-0.09422 0.242535,-0.191715 0.360048,-0.292639 0.12592,-0.09754 0.249356,-0.195376 0.370336,-0.293499 0.12098,-0.09811 0.239517,-0.196519 0.355663,-0.295215 0.116149,-0.0987 0.229893,-0.19767 0.341303,-0.296968 0.111415,-0.0993 0.220483,-0.198886 0.32726,-0.298798 0.106786,-0.0999 0.211276,-0.200123 0.313546,-0.300662 0.10226,-0.100542 0.202287,-0.201397 0.300129,-0.302599 0.09785,-0.101184 0.193513,-0.20272 0.287061,-0.304568 0.09362,-0.101857 0.184947,-0.204061 0.27428,-0.306601 0.08923,-0.102557 0.176597,-0.205459 0.261833,-0.308708 0.08531,-0.103254 0.168456,-0.206881 0.249703,-0.310854 0.08115,-0.103972 0.160526,-0.208324 0.237883,-0.313043 0.07747,-0.104721 0.152812,-0.209804 0.226391,-0.315287 0.07348,-0.10548 0.145302,-0.211348 0.215207,-0.317609 0.07005,-0.106251 0.138019,-0.21291 0.204363,-0.319967 0.06619,-0.107058 0.130927,-0.21451 0.193804,-0.322381 0.06312,-0.107871 0.124066,-0.216147 0.183588,-0.324857 0.05932,-0.108695 0.117407,-0.21782 0.173684,-0.327376 0.05638,-0.109551 0.110958,-0.219533 0.164094,-0.329955 0.05326,-0.110419 0.10473,-0.22128 0.154821,-0.332593 0.04988,-0.111307 0.09871,-0.22306 0.145876,-0.335274 0.0473,-0.112215 0.09295,-0.224883 0.137241,-0.338021 0.04414,-0.113136 0.08717,-0.226744 0.128919,-0.340817 0.04156,-0.114081 0.08175,-0.228629 0.120926,-0.343672 0.03916,-0.115037 0.07691,-0.230558 0.113245,-0.346568 0.03635,-0.116015 0.07174,-0.232529 0.105886,-0.349538 0.034,-0.117007 0.06681,-0.234519 0.09884,-0.352545 0.03195,-0.118032 0.06263,-0.236557 0.09219,-0.355612 0.02946,-0.119055 0.05807,-0.238646 0.08584,-0.358746 0.0273,-0.12011 0.05422,-0.240742 0.0795,-0.361918 0.02578,-0.121179 0.04992,-0.242887 0.07373,-0.365151 0.02389,-0.122256 0.04663,-0.245063 0.06858,-0.368429 0.02172,-0.123368 0.04287,-0.247285 0.06347,-0.371783 7e-5,-0.03413 -5.9e-4,-0.06867 -0.0025,-0.102538 -0.0017,-0.03401 -0.0043,-0.06816 -0.0077,-0.101968 -0.0033,-0.0339 -0.0074,-0.06769 -0.0099,-0.101439 -0.0047,-0.03378 -0.01,-0.06723 -0.01204,-0.100917 -0.0059,-0.03365 -0.0099,-0.06682 -0.01462,-0.100424 -0.0069,-0.03357 -0.01101,-0.06651 -0.01685,-0.09997 -0.0076,-0.03344 -0.01168,-0.06624 -0.01832,-0.09954 -0.0082,-0.03335 -0.01245,-0.06598 -0.01899,-0.09913 -0.0085,-0.03323 -0.0129,-0.06571 -0.01938,-0.09874 -0.0086,-0.0331 -0.01297,-0.06553 -0.01935,-0.09839 -0.0085,-0.03294 -0.0127,-0.06525 -0.01899,-0.09805 -0.0081,-0.03285 -0.01199,-0.06498 -0.01826,-0.09774 -0.0076,-0.03272 -0.01129,-0.06478 -0.01665,-0.09745 -0.0068,-0.0326 -0.01025,-0.06461 -0.01429,-0.0972 -0.0058,-0.0325 -0.0099,-0.06445 -0.01174,-0.09696 -0.0046,-0.03241 -0.0085,-0.06436 -0.0099,-0.09676 -0.0032,-0.03234 -0.0056,-0.06419 -0.0071,-0.09657 -0.0015,-0.03228 -0.0022,-0.0641 -0.0019,-0.09642 2.49e-4,-0.03225 0.0016,-0.06407 0.004,-0.0963 0.0024,-0.03223 0.0059,-0.06401 0.0099,-0.0962 0.0047,-0.0322 0.01,-0.06401 0.01342,-0.09615 0.0072,-0.03216 0.01179,-0.06393 0.01933,-0.09608 0.0099,-0.03217 0.01642,-0.06394 0.02615,-0.0961 0.01,-0.03218 0.02067,-0.06392 0.03328,-0.09608 0.01197,-0.03213 0.02594,-0.06396 0.04078,-0.09613 0.01474,-0.0322 0.03117,-0.06401 0.04866,-0.09618 0.01777,-0.03218 0.03635,-0.0641 0.05681,-0.09628 0.02035,-0.03228 0.04218,-0.06406 0.06584,-0.09639 0.02376,-0.03231 0.04879,-0.06419 0.07549,-0.09655 0.02663,-0.03233 0.05544,-0.06429 0.08552,-0.09673 0.03021,-0.0324 0.06224,-0.06437 0.09583,-0.09692 0.03382,-0.03248 0.06954,-0.0645 0.106856,-0.09716 0.03745,-0.03259 0.07664,-0.07055 0.116766,-0.113453 0.04056,-0.04301 0.08178,-0.09157 0.124775,-0.144792 0.04268,-0.0535 0.08684,-0.111612 0.132023,-0.174622 0.04511,-0.06324 0.09141,-0.130768 0.138485,-0.202989 0.0473,-0.07201 0.0952,-0.148923 0.144201,-0.229851 0.04897,-0.08084 0.0987,-0.166087 0.149141,-0.255226 0.05031,-0.08905 0.101591,-0.182269 0.153301,-0.279125 0.05151,-0.09683 0.103992,-0.19745 0.156709,-0.301532 0.05272,-0.104081 0.105873,-0.211644 0.159337,-0.322453 0.05369,-0.110804 0.107253,-0.224842 0.161204,-0.341885 0.05415,-0.117028 0.108099,-0.237053 0.162298,-0.359822 0.05434,-0.122767 0.10845,-0.248281 0.162625,-0.376287 0.05435,-0.128007 0.108284,-0.258505 0.162189,-0.391259 0.05407,-0.132751 0.107598,-0.267748 0.160967,-0.404741 0.05357,-0.136996 0.106415,-0.275989 0.159002,-0.416739 0.05254,-0.140743 0.104707,-0.28325 0.156235,-0.42725 0.05136,-0.144003 0.102498,-0.289517 0.15274,-0.436277 0.05003,-0.146765 0.09976,-0.294784 0.148448,-0.443807 0.04882,-0.149029 0.09647,-0.299066 0.143389,-0.449861 0.04702,-0.150793 0.09283,-0.302348 0.137579,-0.454421 0.04468,-0.152067 0.08847,-0.304652 0.130978,-0.457501 0.04226,-0.152842 0.08388,-0.30595 0.123628,-0.459074 0.04003,-0.153139 0.07859,-0.306279 0.115498,-0.459192 0.03687,-0.15291 0.0724,-0.305598 0.106601,-0.457801 0.03404,-0.152203 0.06616,-0.303928 0.09691,-0.454928 0.03077,-0.150995 0.05929,-0.301268 0.08649,-0.450568 0.02684,-0.149296 0.05198,-0.297618 0.07531,-0.444717 0.02332,-0.147105 0.04409,-0.292983 0.06356,-0.437377 0.01892,-0.144424 0.03575,-0.287361 0.05047,-0.428577 0.01453,-0.141223 0.02685,-0.28072 0.03692,-0.418252 0.01024,-0.137544 0.01793,-0.273113 0.02289,-0.406467 0.0067,-0.133349 0.0099,-0.2645 0.0099,-0.393176 0,-0.163225 -0.0027,-0.325984 -0.008,-0.488245 -0.0053,-0.162271 -0.01036,-0.324038 -0.01841,-0.485303 -0.0099,-0.161262 -0.01835,-0.321998 -0.03016,-0.482214 -0.01181,-0.160202 -0.02614,-0.319874 -0.04179,-0.478979 -0.01616,-0.159108 -0.03381,-0.317662 -0.05385,-0.475623 -0.01956,-0.157963 -0.04151,-0.315342 -0.06494,-0.472121 -0.02384,-0.156768 -0.04907,-0.312936 -0.07673,-0.468474 -0.02717,-0.155543 -0.05655,-0.31044 -0.08771,-0.464707 -0.03133,-0.154243 -0.06388,-0.307849 -0.09892,-0.460775 -0.03455,-0.152926 -0.07155,-0.305176 -0.10987,-0.456721 -0.03866,-0.151548 -0.07879,-0.302405 -0.120698,-0.452531 -0.04175,-0.150118 -0.08594,-0.299533 -0.131369,-0.448187 -0.04567,-0.148654 -0.09292,-0.296575 -0.14191,-0.443711 -0.04904,-0.147157 -0.09982,-0.293529 -0.152308,-0.439108 -0.05241,-0.145592 -0.106674,-0.290376 -0.162555,-0.434358 -0.05604,-0.14398 -0.113437,-0.287142 -0.172665,-0.429463 -0.05904,-0.142325 -0.12011,-0.28381 -0.182637,-0.424428 -0.06267,-0.140624 -0.126694,-0.280389 -0.192457,-0.419264 -0.06567,-0.138885 -0.133181,-0.276877 -0.202156,-0.413964 -0.06905,-0.137161 -0.139436,-0.273337 -0.211578,-0.408585 -0.0719,-0.135407 -0.145838,-0.269723 -0.221083,-0.403088 -0.07524,-0.133396 -0.152051,-0.2658 -0.23036,-0.397239 -0.07852,-0.13154 -0.158194,-0.262002 -0.239523,-0.391448 -0.08131,-0.12976 -0.164227,-0.258214 -0.248519,-0.385648 -0.08432,-0.127692 -0.16998,-0.254101 -0.257194,-0.379461 -0.08699,-0.125499 -0.175785,-0.249809 -0.265869,-0.373052 -0.09002,-0.12335 -0.181571,-0.245532 -0.274481,-0.366605 -0.09285,-0.121245 -0.187103,-0.241228 -0.2828,-0.360104 -0.09564,-0.118947 -0.192764,-0.236701 -0.291191,-0.353328 -0.09848,-0.116783 -0.198257,-0.232268 -0.299362,-0.346591 -0.101068,-0.114499 -0.203509,-0.227648 -0.307259,-0.339625 -0.103739,-0.112006 -0.208796,-0.222786 -0.315129,-0.332369 -0.0708,-0.261381 -0.146623,-0.520574 -0.227874,-0.777488 -0.08117,-0.257115 -0.167769,-0.51177 -0.259418,-0.764038 -0.09145,-0.25303 -0.188177,-0.502911 -0.289974,-0.750278 -0.101722,-0.247848 -0.208531,-0.492704 -0.320221,-0.734929 -0.111591,-0.242803 -0.228184,-0.482399 -0.349533,-0.719243 -0.121189,-0.237033 -0.247304,-0.471124 -0.378055,-0.702347 -0.130861,-0.231581 -0.266269,-0.459934 -0.406185,-0.685284 -0.139762,-0.225519 -0.2842,-0.447877 -0.433029,-0.667119 -0.148859,-0.21926 -0.302076,-0.43539 -0.459576,-0.648276 -0.157518,-0.213021 -0.319288,-0.422679 -0.485204,-0.628976 -0.165915,-0.20629 -0.335982,-0.409241 -0.510068,-0.608705 -0.17409,-0.199855 -0.352198,-0.395841 -0.534226,-0.588224 -0.18194,-0.192528 -0.367855,-0.38131 -0.557547,-0.566382 -0.189706,-0.185112 -0.383187,-0.366457 -0.580309,-0.543967 -0.197138,-0.177494 -0.397918,-0.351162 -0.60223,-0.520859 -0.204296,-0.169773 -0.412141,-0.335512 -0.623399,-0.497166 -0.211274,-0.161725 -0.425935,-0.319297 -0.643887,-0.472665 -0.217895,-0.15352 -0.439132,-0.302678 -0.663523,-0.447517 -0.224392,-0.144843 -0.451947,-0.285345 -0.682538,-0.421421 -0.230587,-0.13606 -0.464218,-0.267677 -0.700761,-0.394729 -0.236548,-0.127047 -0.476009,-0.249535 -0.718255,-0.367327 -0.242246,-0.117792 -0.487293,-0.230905 -0.734998,-0.339197 -0.24765,-0.108315 -0.498032,-0.211801 -0.750951,-0.310356 -0.25292,-0.09857 -0.508387,-0.192186 -0.766268,-0.280753 -0.257888,-0.0885 -0.518194,-0.172101 -0.780804,-0.250449 -0.262596,-0.07847 -0.527496,-0.151532 -0.794579,-0.219414 -0.267075,-0.06791 -0.536324,-0.130467 -0.807635,-0.187639 -0.271293,-0.05694 -0.544645,-0.10894 -0.819925,-0.155157 -0.27528,-0.04642 -0.552488,-0.08688 -0.831495,-0.121943 -0.279013,-0.03481 -0.559828,-0.0642 -0.842324,-0.08793 -0.282499,-0.0238 -0.566665,-0.04136 -0.852408,-0.05352 -0.285728,-0.01168 -0.573023,-0.01818 -0.861741,-0.01818 h -0.0028 -0.0028 -0.0028 -0.0028 -0.0028 -0.0028 -0.0028 -0.0028 -0.0028 -0.0028 -0.0028 -0.0028 -0.0028 -0.0028 -0.0028 -0.0028 -0.0028 -0.0028 -0.0028 -0.0028 -0.0028 -0.0028 -0.0028 -0.0028 -0.0028 -0.0028 -0.0028 -0.0028 -0.0028 -0.0028 -0.0028 -0.0028 c -0.100909,-0.09438 -0.204294,-0.186936 -0.308519,-0.278071 -0.104235,-0.09121 -0.209321,-0.180862 -0.315241,-0.269185 -0.105914,-0.08825 -0.212663,-0.175214 -0.320209,-0.260704 -0.107482,-0.0856 -0.215828,-0.169565 -0.324954,-0.252223 -0.109125,-0.08262 -0.219028,-0.163902 -0.329678,-0.243724 -0.110651,-0.07966 -0.222057,-0.15823 -0.334187,-0.23521 -0.112121,-0.07711 -0.224974,-0.152548 -0.338519,-0.226684 -0.113541,-0.07397 -0.227789,-0.146853 -0.342713,-0.218142 -0.11491,-0.07146 -0.230496,-0.141146 -0.346726,-0.209581 -0.116162,-0.06862 -0.233038,-0.135438 -0.350534,-0.201013 -0.117356,-0.06545 -0.235469,-0.129703 -0.354182,-0.192413 -0.118698,-0.06289 -0.238003,-0.123989 -0.357864,-0.18383 -0.119868,-0.05972 -0.240291,-0.118244 -0.361269,-0.175214 -0.120903,-0.05682 -0.24242,-0.112515 -0.364446,-0.16661 -0.12186,-0.05428 -0.244399,-0.106776 -0.36742,-0.157982 -0.122891,-0.05108 -0.246405,-0.100962 -0.370381,-0.149279 -0.123901,-0.04849 -0.248335,-0.0951 -0.373209,-0.140608 -0.124796,-0.04548 -0.250102,-0.08928 -0.375819,-0.131924 -0.125639,-0.04233 -0.251767,-0.08374 -0.378271,-0.123225 -0.1265,-0.03972 -0.253394,-0.07794 -0.380635,-0.114507 -0.127243,-0.03651 -0.254839,-0.07181 -0.382771,-0.105777 -0.127931,-0.03385 -0.256183,-0.06603 -0.384752,-0.09702 -0.128564,-0.03108 -0.257431,-0.06033 -0.386575,-0.08821 -0.129073,-0.02788 -0.25849,-0.05458 -0.388166,-0.07939 -0.129672,-0.02515 -0.2596,-0.04874 -0.389748,-0.0709 -0.130145,-0.02198 -0.260522,-0.04264 -0.391088,-0.06204 -0.130572,-0.0191 -0.261346,-0.03668 -0.392293,-0.0532 -0.130938,-0.0164 -0.262055,-0.03118 -0.393318,-0.04406 -0.131263,-0.01319 -0.262674,-0.02522 -0.394197,-0.03537 -0.13153,-0.0105 -0.263183,-0.01909 -0.394927,-0.0265 -0.13174,-0.0094 -0.263573,-0.01321 -0.395479,-0.01785 -0.131896,-0.0055 -0.26387,-0.0093 -0.395885,-0.0099 z"
       id="path895"
       inkscape:connector-curvature="0"
       sodipodi:nodetypes="sssssssssssssssssssssssssssssssscssssssssssssssssssssssssssssssscssssssssssssssssssssssssssssssscssssssssssssssssssssssssssssssscssssssssssssssssssssssssssssssscssssssssssssssssssssssssssssssscssssssssssssssssssssssssssssssscssssssssssssssssssssssssssssssscssssssssssssssssssssssssssssssssssssssssssssssssssssssssssssssssssssssssssssssssssssssssssssssscssssssssssssssssssssssssssssssscssssssssssssssssssssssssssssssscssssssssssssssssssssssssssssssssssssssssssssssssssssssssssssssssssssssssssssssssssssssssssssssscssssssssssssssssssssssssssssssssccccccccccccccccccccccccccccccccssssssssssssssssssssssssssssssss" />
  </g>
  <g
     id="g853"
     inkscape:groupmode="layer"
     inkscape:label="B.Cu-disabled"
     transform="translate(-0.92520759,-26.565639)" />
  <g
     id="g855"
     inkscape:groupmode="layer"
     inkscape:label="B.Mask-disabled"
     transform="translate(-0.92520759,-26.565639)" />
  <g
     id="g857"
     inkscape:groupmode="layer"
     inkscape:label="B.Silk-disabled"
     transform="translate(-0.92520759,-26.565639)" />
  <g
     id="g859"
     inkscape:groupmode="layer"
     inkscape:label="F.Cu"
     transform="translate(-0.92520759,-26.565639)" />
  <g
     id="g861"
     inkscape:groupmode="layer"
     inkscape:label="F.Mask-disabled"
     transform="translate(-0.92520759,-26.565639)" />
  <g
     id="g863"
     inkscape:groupmode="layer"
     inkscape:label="F.Silk"
     style="display:inline"
     transform="translate(-0.92520759,-26.565639)">
    <path
       style="fill:#000000;fill-opacity:1;stroke:#000000;stroke-width:0.16267385;stroke-miterlimit:4;stroke-dasharray:none;stroke-opacity:1"
       d="M 34.575527,70.793531 C 34.418745,70.74969 34.262182,70.695781 34.106583,70.632843 33.950981,70.569667 33.79634,70.497782 33.643435,70.417088 33.49053,70.336455 33.33935,70.247121 33.190659,70.149867 33.041975,70.052636 32.89578,69.947396 32.752841,69.834794 32.609898,69.722191 32.470217,69.60222 32.334551,69.475473 32.198882,69.348717 32.06723,69.215196 31.94036,69.0755 c -0.126868,-0.139696 -0.248959,-0.285568 -0.365503,-0.437006 -0.116555,-0.151449 -0.22755,-0.308466 -0.332248,-0.470454 -0.06663,-0.103431 -0.127987,-0.201579 -0.183631,-0.295067 -0.05587,-0.09355 -0.105762,-0.18231 -0.150619,-0.267089 -0.04474,-0.08481 -0.08452,-0.165513 -0.118894,-0.242809 -0.03428,-0.0774 -0.0639,-0.151169 -0.0884,-0.222214 -0.02466,-0.07124 -0.04401,-0.139281 -0.05909,-0.205313 -0.01503,-0.06587 -0.02568,-0.129862 -0.03155,-0.192098 -0.0078,-0.06235 -0.0098,-0.122903 -0.0062,-0.182593 0.0035,-0.05951 0.01,-0.118396 0.02046,-0.176758 0.01702,-0.0897 0.04468,-0.176193 0.08214,-0.258308 0.0374,-0.08196 0.08452,-0.159916 0.139295,-0.232458 0.05498,-0.07227 0.117607,-0.139807 0.186633,-0.200845 0.06918,-0.06126 0.144337,-0.115862 0.224315,-0.163481 0.0798,-0.04781 0.164616,-0.08799 0.252306,-0.120342 0.08758,-0.03242 0.17843,-0.05645 0.270614,-0.07164 0.09223,-0.015 0.185811,-0.02079 0.279253,-0.01691 0.0935,0.0054 0.186722,0.01853 0.278216,0.04354 0.05127,0.01399 0.100578,0.03097 0.147932,0.05005 0.04748,0.01928 0.093,0.04174 0.137318,0.06779 0.04416,0.02604 0.08743,0.05553 0.130074,0.08869 0.04231,0.03361 0.08456,0.07118 0.126306,0.113198 0.04172,0.042 0.08377,0.08893 0.125927,0.141097 0.04207,0.05186 0.08514,0.109343 0.128972,0.172423 0.0437,0.06333 0.08877,0.131958 0.135436,0.207212 0.04676,0.07523 0.09479,0.156874 0.145335,0.245449 0.09228,0.161832 0.190452,0.313616 0.293832,0.454856 0.103385,0.141245 0.211923,0.27194 0.324784,0.391607 0.112853,0.119674 0.230031,0.228323 0.350696,0.325453 0.12067,0.09711 0.244812,0.18275 0.371611,0.25636 0.12679,0.0735 0.256226,0.135241 0.387479,0.184375 0.131251,0.04903 0.264307,0.08591 0.39834,0.109446 0.134028,0.02385 0.269031,0.03426 0.404172,0.03178 0.135134,-0.0036 0.270412,-0.01895 0.404978,-0.04904 0.136842,-0.03083 0.268746,-0.06544 0.397967,-0.106176 0.129227,-0.04086 0.255772,-0.08687 0.381899,-0.140524 0.126127,-0.0538 0.251837,-0.114353 0.379391,-0.183862 0.12755,-0.06965 0.256944,-0.147728 0.390442,-0.23617 0.133505,-0.08838 0.271104,-0.187106 0.415074,-0.297484 0.143962,-0.110377 0.294299,-0.232467 0.453252,-0.367774 0.158952,-0.135299 0.326537,-0.283816 0.504997,-0.447047 0.178465,-0.163231 0.367818,-0.341163 0.57032,-0.535317 0.36459,-0.349548 0.72981,-0.673757 1.097899,-0.97349 0.368086,-0.299732 0.739048,-0.575002 1.115116,-0.826692 0.376076,-0.251691 0.757263,-0.479812 1.145804,-0.685238 0.388551,-0.205426 0.78445,-0.38818 1.189945,-0.549136 0.405517,-0.160943 0.820617,-0.300102 1.247576,-0.418356 0.42695,-0.118256 0.865753,-0.215608 1.318642,-0.292953 0.452894,-0.07747 0.919876,-0.134663 1.403191,-0.172856 0.483323,-0.03837 0.982977,-0.05704 1.50121,-0.05802 0.314093,-6.12e-4 0.624295,0.0064 0.931223,0.01644 0.306931,0.01132 0.61059,0.02861 0.911604,0.05216 0.301012,0.02374 0.59938,0.05324 0.895727,0.08885 0.296361,0.03577 0.590691,0.07802 0.883627,0.126194 0.292933,0.04858 0.584475,0.103007 0.875242,0.164093 0.29078,0.06129 0.580782,0.128575 0.87065,0.202588 0.289855,0.07387 0.579579,0.154559 0.869788,0.241725 0.290197,0.08705 0.580876,0.18094 0.872674,0.281455 0.143637,0.0493 0.289288,0.09583 0.436917,0.139196 0.147627,0.04323 0.297238,0.08369 0.448816,0.120707 0.151575,0.03699 0.305112,0.07137 0.460588,0.102183 0.155481,0.03119 0.312899,0.05871 0.472238,0.08379 0.159343,0.02491 0.320608,0.04663 0.483765,0.06487 0.163153,0.01875 0.32822,0.03401 0.49515,0.04668 0.166941,0.01217 0.335757,0.02149 0.506433,0.02781 0.170674,0.0081 0.343208,0.0099 0.51757,0.0099 0.257347,0 0.505764,-0.0099 0.745831,-0.02452 0.240084,-0.01649 0.471814,-0.04111 0.695811,-0.07386 0.223992,-0.03333 0.440243,-0.07445 0.649334,-0.124876 0.209087,-0.05003 0.411031,-0.109158 0.606417,-0.176961 0.195368,-0.06781 0.384185,-0.144496 0.567039,-0.230278 0.182848,-0.08592 0.359727,-0.180665 0.531234,-0.284836 0.171501,-0.104181 0.337624,-0.217644 0.498969,-0.340622 0.161346,-0.122973 0.317895,-0.255454 0.470263,-0.39764 0.234317,-0.218666 0.44351,-0.445769 0.627433,-0.680013 0.183914,-0.23425 0.342556,-0.475629 0.475773,-0.722848 0.133214,-0.24722 0.241004,-0.500276 0.323223,-0.757866 0.08208,-0.257586 0.13884,-0.519705 0.169741,-0.78505 0.03111,-0.26534 0.03594,-0.533914 0.01545,-0.804414 -0.0206,-0.270496 -0.06716,-0.542909 -0.139932,-0.815946 -0.0724,-0.27304 -0.171297,-0.546696 -0.296138,-0.819674 -0.124846,-0.272977 -0.275884,-0.545263 -0.453252,-0.815563 -0.02694,-0.04143 -0.06025,-0.08813 -0.09834,-0.139307 -0.03821,-0.051 -0.08106,-0.106602 -0.128354,-0.1654 -0.04733,-0.05865 -0.09849,-0.120906 -0.152973,-0.185327 -0.05464,-0.06419 -0.112162,-0.131129 -0.172142,-0.199112 -0.05989,-0.06805 -0.122239,-0.137242 -0.185889,-0.206752 -0.06377,-0.06962 -0.128687,-0.139245 -0.194206,-0.208209 -0.06538,-0.06914 -0.131518,-0.137164 -0.197094,-0.203547 -0.06545,-0.06622 -0.130713,-0.130957 -0.194539,-0.192708 L 64.843744,54.164274 64.727696,54.052009 64.611642,53.93974 64.4956,53.827468 64.379552,53.715199 64.263505,53.60293 64.147462,53.490663 64.031412,53.378397 V 53.05977 52.741104 52.422431 52.103756 51.785088 51.466411 51.147748 50.82907 c 0,-0.267354 -4.09e-4,-0.509469 -0.0021,-0.729619 -0.0016,-0.220144 -0.004,-0.418336 -0.0076,-0.597843 -0.0036,-0.179509 -0.0084,-0.340337 -0.01123,-0.485761 -0.0062,-0.145425 -0.0108,-0.275454 -0.01798,-0.393362 -0.0093,-0.1179 -0.01569,-0.223692 -0.02568,-0.320636 -0.01007,-0.09692 -0.02111,-0.185054 -0.03421,-0.267606 -0.01295,-0.08249 -0.02766,-0.159544 -0.04423,-0.234255 -0.01678,-0.07453 -0.03493,-0.147146 -0.05595,-0.220585 -0.110385,-0.394588 -0.243041,-0.767415 -0.397651,-1.118452 -0.154571,-0.351031 -0.331156,-0.680271 -0.52966,-0.987701 -0.198525,-0.307415 -0.418959,-0.593019 -0.661277,-0.856781 -0.242209,-0.263735 -0.506411,-0.505642 -0.792462,-0.725671 -0.286037,-0.220023 -0.593935,-0.418171 -0.923647,-0.594411 -0.329704,-0.176234 -0.681213,-0.330569 -1.054509,-0.462971 -0.373285,-0.132394 -0.768341,-0.242844 -1.185133,-0.33134 -0.416794,-0.08841 -0.855319,-0.155012 -1.315537,-0.199534 -0.299912,-0.02882 -0.606907,-0.04467 -0.917923,-0.04825 -0.311017,-0.0042 -0.626067,0.0081 -0.942067,0.02724 -0.316015,0.02111 -0.632998,0.05465 -0.947874,0.09899 -0.314882,0.04426 -0.627677,0.100208 -0.935321,0.166538 -0.307639,0.06616 -0.610132,0.14326 -0.904413,0.230139 -0.294283,0.08685 -0.580355,0.183679 -0.85516,0.289765 -0.274807,0.106087 -0.538336,0.221464 -0.787544,0.345457 -0.249214,0.123993 -0.484091,0.25661 -0.701595,0.397183 -0.218088,0.140961 -0.425978,0.295095 -0.622979,0.461161 -0.197006,0.166069 -0.383117,0.344071 -0.55765,0.532757 -0.174537,0.188699 -0.33749,0.388084 -0.488185,0.596932 -0.150694,0.208836 -0.289121,0.427136 -0.414606,0.653643 -0.125479,0.226511 -0.238012,0.461235 -0.336902,0.702941 -0.0989,0.241704 -0.184156,0.490381 -0.255091,0.744786 -0.07111,0.254417 -0.127539,0.51457 -0.169141,0.779215 -0.04153,0.264647 -0.06832,0.533795 -0.07906,0.806196 -0.0088,0.167785 -0.01371,0.312877 -0.0189,0.438602 -0.0067,0.125713 -0.0099,0.232079 -0.0089,0.322408 0.0019,0.09032 0.0095,0.16463 0.01993,0.226242 0.0127,0.06179 0.03286,0.110549 0.06202,0.150121 0.02901,0.0397 0.06788,0.06993 0.118385,0.09402 0.05041,0.0244 0.112931,0.04219 0.189688,0.0578 0.07691,0.01569 0.167871,0.02822 0.275795,0.04175 0.107915,0.01336 0.232659,0.02752 0.376666,0.04611 0.340077,0.04282 0.678397,0.101601 1.013549,0.175197 0.335159,0.07345 0.667131,0.162184 0.994505,0.26496 0.327374,0.102785 0.650137,0.219787 0.966879,0.350258 0.316728,0.130479 0.627426,0.27444 0.93065,0.431138 0.303229,0.1567 0.598983,0.326126 0.885849,0.507551 0.286857,0.181437 0.564822,0.374865 0.832451,0.579564 0.267637,0.204686 0.524937,0.420635 0.770475,0.647104 0.245544,0.226475 0.47932,0.463461 0.699903,0.710235 0.0437,0.04903 0.08311,0.09403 0.1181,0.136011 0.03479,0.0418 0.0658,0.08093 0.09313,0.118289 0.02695,0.03712 0.05053,0.0725 0.07107,0.107537 0.02008,0.03457 0.03715,0.06922 0.05141,0.103744 0.01408,0.03448 0.02604,0.0701 0.0349,0.106925 0.0099,0.03674 0.01644,0.07567 0.02133,0.117089 0.0068,0.04147 0.01,0.08597 0.01102,0.134187 0.0028,0.04852 0.0039,0.100736 0.0039,0.158283 0,0.07908 -0.0069,0.156019 -0.01571,0.230065 -0.01056,0.07391 -0.02592,0.14538 -0.04622,0.213752 -0.02015,0.06855 -0.0456,0.133773 -0.07548,0.195967 -0.02988,0.06233 -0.06438,0.121191 -0.103837,0.176733 -0.0394,0.05582 -0.08306,0.107643 -0.131209,0.156048 -0.04839,0.04861 -0.10076,0.09321 -0.157547,0.133914 -0.0567,0.04093 -0.117812,0.07775 -0.18287,0.110313 -0.06481,0.0329 -0.134175,0.06141 -0.20716,0.08535 -0.07629,0.02532 -0.148406,0.0444 -0.218545,0.05759 -0.07031,0.01306 -0.138077,0.01993 -0.205357,0.01987 -0.06712,-2e-5 -0.133885,-0.0091 -0.201366,-0.02136 -0.06738,-0.01442 -0.13582,-0.03649 -0.206565,-0.06695 -0.07094,-0.03051 -0.143884,-0.06928 -0.220962,-0.116706 -0.07717,-0.04778 -0.158074,-0.10411 -0.244545,-0.17021 -0.08654,-0.06598 -0.178366,-0.141754 -0.277301,-0.227664 -0.09881,-0.08604 -0.204724,-0.182067 -0.319183,-0.289099 -0.251665,-0.235415 -0.511935,-0.454635 -0.780033,-0.65742 -0.268092,-0.202772 -0.544012,-0.389095 -0.827045,-0.558747 -0.282997,-0.169627 -0.57314,-0.322592 -0.869704,-0.458647 -0.296563,-0.13605 -0.599533,-0.255196 -0.908232,-0.357193 -0.308688,-0.101995 -0.623091,-0.186855 -0.942504,-0.254332 -0.319424,-0.06739 -0.643846,-0.117582 -0.972588,-0.150078 -0.328732,-0.03266 -0.661786,-0.0475 -0.99844,-0.04422 -0.336655,0.0039 -0.676919,0.02392 -1.020093,0.06277 -0.250921,0.02831 -0.490297,0.0614 -0.719205,0.09871 -0.2289,0.03748 -0.44733,0.07965 -0.656359,0.127301 -0.209027,0.04764 -0.408656,0.10017 -0.599961,0.158469 -0.191302,0.05817 -0.374275,0.122241 -0.549986,0.192211 -0.175717,0.07009 -0.344179,0.146 -0.506458,0.228512 -0.162282,0.08243 -0.318378,0.171471 -0.469368,0.26736 -0.150985,0.09583 -0.296867,0.198666 -0.438703,0.308792 -0.141841,0.110113 -0.279643,0.227565 -0.41448,0.352765 -0.137222,0.127409 -0.261631,0.239646 -0.376359,0.337256 -0.114732,0.09759 -0.21977,0.18055 -0.318219,0.249405 -0.09847,0.06904 -0.190332,0.123612 -0.278735,0.164794 -0.08834,0.04126 -0.173327,0.06899 -0.257897,0.0835 -0.08465,0.01444 -0.16877,0.01635 -0.255714,0.0068 -0.08691,-0.01106 -0.176644,-0.03417 -0.27219,-0.0699 -0.09549,-0.03525 -0.19695,-0.08271 -0.307314,-0.141499 -0.110364,-0.05862 -0.229688,-0.128965 -0.361081,-0.21004 -0.140105,-0.08653 -0.272298,-0.165085 -0.398874,-0.236619 -0.126573,-0.07155 -0.247533,-0.13598 -0.36519,-0.194042 -0.11765,-0.05795 -0.231994,-0.109745 -0.345338,-0.155768 -0.113345,-0.04625 -0.225681,-0.08644 -0.339331,-0.121809 -0.113639,-0.03529 -0.228585,-0.06581 -0.347141,-0.09224 -0.118554,-0.02629 -0.24072,-0.04847 -0.3688,-0.06663 -0.128078,-0.0187 -0.262068,-0.03369 -0.404275,-0.04598 -0.142208,-0.01198 -0.292642,-0.02149 -0.4536,-0.02887 -0.458103,-0.02086 -0.905011,-0.0046 -1.337216,0.04963 -0.432204,0.05358 -0.849712,0.142584 -1.24901,0.264893 -0.399311,0.12232 -0.780415,0.27774 -1.139821,0.463527 -0.359405,0.185795 -0.697111,0.401961 -1.009619,0.645781 -0.312501,0.243805 -0.599811,0.51526 -0.858417,0.811634 -0.25861,0.296374 -0.488527,0.617655 -0.686235,0.961121 -0.197715,0.343466 -0.363224,0.709129 -0.493047,1.09423 -0.129817,0.385107 -0.223938,0.789673 -0.278861,1.21095 -0.01312,0.101622 -0.03016,0.195145 -0.05204,0.281879 -0.02188,0.08673 -0.0491,0.166667 -0.08305,0.241084 -0.03383,0.07421 -0.07404,0.143328 -0.122687,0.207995 -0.04864,0.06445 -0.105076,0.125106 -0.171228,0.18259 -0.06602,0.05725 -0.141858,0.112018 -0.228605,0.164883 -0.08675,0.05291 -0.184544,0.104062 -0.294854,0.154878 -0.110305,0.05072 -0.233136,0.101241 -0.369954,0.152564 -0.136813,0.05116 -0.287626,0.103547 -0.453897,0.157956 -0.311553,0.101927 -0.616038,0.218204 -0.912387,0.347887 -0.296336,0.129695 -0.584524,0.272797 -0.863462,0.428385 -0.27895,0.155594 -0.548648,0.323674 -0.808011,0.503304 -0.259362,0.179643 -0.508392,0.370835 -0.745995,0.57266 -0.237597,0.20182 -0.463767,0.414277 -0.677407,0.636434 -0.213641,0.222155 -0.414768,0.454001 -0.602282,0.694631 -0.187507,0.24063 -0.3614,0.490034 -0.520585,0.747272 -0.159188,0.25725 -0.303667,0.522336 -0.432344,0.794351 -0.02086,0.04424 -0.04155,0.08811 -0.06203,0.130672 -0.02001,0.04229 -0.03994,0.08401 -0.05857,0.123504 -0.01889,0.03977 -0.03681,0.07777 -0.05431,0.113519 -0.01724,0.03573 -0.03348,0.06975 -0.04845,0.100719 -0.01489,0.03132 -0.02852,0.05946 -0.04114,0.08514 -0.01207,0.02572 -0.02333,0.04807 -0.03248,0.06647 -0.0099,0.01884 -0.01688,0.034 -0.02232,0.04546 -0.0074,0.01126 -0.0099,0.01865 -0.01116,0.02116 -0.0021,0.0036 -0.0067,0.0043 -0.01045,0.0021 -0.0067,-0.0021 -0.0116,-0.0069 -0.01975,-0.011 -0.0099,-0.0073 -0.01799,-0.01292 -0.02843,-0.02213 -0.01102,-0.0099 -0.02296,-0.01987 -0.03584,-0.0327 -0.01298,-0.0122 -0.02699,-0.02635 -0.04194,-0.04154 -0.01492,-0.01537 -0.03094,-0.03202 -0.04735,-0.04953 -0.01661,-0.01802 -0.03369,-0.0365 -0.05085,-0.05653 -0.01772,-0.01968 -0.03537,-0.04098 -0.05389,-0.06253 -0.04065,-0.04824 -0.08877,-0.09732 -0.143831,-0.147103 -0.0551,-0.04951 -0.11643,-0.09998 -0.182809,-0.149749 -0.06622,-0.04954 -0.137662,-0.0991 -0.212284,-0.147101 -0.07441,-0.04823 -0.152564,-0.09461 -0.232259,-0.13914 -0.07954,-0.04426 -0.161146,-0.08674 -0.242755,-0.125889 -0.08146,-0.03933 -0.163387,-0.07523 -0.243749,-0.107352 -0.08023,-0.03222 -0.159301,-0.06022 -0.235241,-0.08363 -0.07613,-0.02348 -0.148888,-0.04156 -0.217245,-0.0545 -0.02761,-0.0067 -0.05502,-0.0109 -0.08102,-0.0166 -0.02629,-0.0076 -0.05135,-0.01166 -0.0757,-0.01826 -0.02427,-0.0081 -0.04716,-0.01241 -0.06865,-0.019 -0.02124,-0.0085 -0.0414,-0.01288 -0.05944,-0.01927 -0.01839,-0.0085 -0.03447,-0.01287 -0.04903,-0.01919 -0.01428,-0.0083 -0.0267,-0.01241 -0.03687,-0.01876 -0.01036,-0.0079 -0.01824,-0.01164 -0.0235,-0.0174 -0.0069,-0.0072 -0.0099,-0.01084 -0.0099,-0.01545 1.25e-4,-0.0062 0.0047,-0.01579 0.01035,-0.03212 0.0085,-0.01655 0.01628,-0.03847 0.02816,-0.06478 0.01201,-0.02657 0.02698,-0.05818 0.04435,-0.09409 0.01747,-0.03566 0.03686,-0.07585 0.05864,-0.119211 0.02155,-0.04335 0.04568,-0.09053 0.07118,-0.140419 0.02576,-0.04964 0.05279,-0.102676 0.08129,-0.157675 0.0285,-0.05514 0.05854,-0.112212 0.08969,-0.170994 0.0313,-0.05863 0.06345,-0.119118 0.09609,-0.180377 0.157518,-0.293383 0.328247,-0.579893 0.511335,-0.858745 0.183083,-0.278847 0.378518,-0.550045 0.585441,-0.812802 0.206921,-0.262758 0.425319,-0.51708 0.654342,-0.762169 0.229015,-0.245089 0.468656,-0.480956 0.718045,-0.706813 0.249389,-0.22586 0.50853,-0.441708 0.776549,-0.646755 0.268022,-0.205057 0.54494,-0.399315 0.82986,-0.581993 0.284926,-0.182679 0.577869,-0.353772 0.877973,-0.512514 0.300086,-0.158733 0.607331,-0.305105 0.920865,-0.43833 0.06559,-0.02781 0.125841,-0.05444 0.180636,-0.07919 0.05491,-0.02513 0.104296,-0.04867 0.148807,-0.07119 0.04433,-0.02242 0.08417,-0.04363 0.118933,-0.06406 0.03462,-0.02033 0.06487,-0.04016 0.09111,-0.05876 0.02609,-0.01887 0.04766,-0.03701 0.06485,-0.05514 0.01782,-0.01809 0.03139,-0.03511 0.04125,-0.05249 0.01012,-0.01737 0.0164,-0.03417 0.01905,-0.05134 0.0038,-0.01727 0.0033,-0.03416 -0.0011,-0.0517 -0.01228,-0.06422 -0.04143,-0.162992 -0.08415,-0.289413 -0.04226,-0.126453 -0.09882,-0.280729 -0.166142,-0.456601 -0.06695,-0.175981 -0.145467,-0.373428 -0.232197,-0.586183 -0.0864,-0.212813 -0.181494,-0.440864 -0.282269,-0.67794 -0.100247,-0.237105 -0.206711,-0.483206 -0.316211,-0.732045 -0.109288,-0.24884 -0.221815,-0.500434 -0.334679,-0.748489 -0.112823,-0.248065 -0.22605,-0.492585 -0.336948,-0.72729 -0.11077,-0.23473 -0.219365,-0.459621 -0.322971,-0.66842 -0.264006,-0.532228 -0.535235,-1.045088 -0.812169,-1.536907 -0.27674,-0.491864 -0.559365,-0.962631 -0.846216,-1.410614 -0.286807,-0.447997 -0.577875,-0.873202 -0.871681,-1.273884 -0.293787,-0.400676 -0.590345,-0.776839 -0.888157,-1.126743 -0.29771,-0.349921 -0.596783,-0.673564 -0.895641,-0.969206 -0.298826,-0.295638 -0.597473,-0.563291 -0.894416,-0.801216 -0.296946,-0.237922 -0.592196,-0.446105 -0.884273,-0.62283 -0.292079,-0.176722 -0.580984,-0.321965 -0.865237,-0.434004 -0.125974,-0.04945 -0.249119,-0.09439 -0.37014,-0.134439 -0.121028,-0.04015 -0.239926,-0.07515 -0.357384,-0.105655 -0.117459,-0.03058 -0.233484,-0.05634 -0.348772,-0.07745 -0.115288,-0.02099 -0.229839,-0.03751 -0.344337,-0.04924 -0.114502,-0.01165 -0.22895,-0.01902 -0.344038,-0.02174 -0.115092,-0.0036 -0.230828,-0.0013 -0.347913,0.0067 -0.117078,0.0081 -0.235504,0.0169 -0.355953,0.0319 -0.120455,0.01492 -0.242938,0.03417 -0.368149,0.05774 -0.346676,0.06521 -0.675646,0.152464 -0.98592,0.260068 -0.310274,0.107603 -0.601847,0.235746 -0.873733,0.383264 -0.271886,0.147524 -0.524085,0.314412 -0.755609,0.499532 -0.231521,0.185129 -0.442364,0.388479 -0.631533,0.608903 -0.189182,0.220418 -0.356688,0.45792 -0.5015417,0.711336 -0.1448489,0.253415 -0.2670463,0.522753 -0.3655899,0.806857 -0.098547,0.284101 -0.1734449,0.582972 -0.2237119,0.895455 -0.050121,0.312483 -0.076001,0.638578 -0.076001,0.977138 0,0.303318 0.021351,0.59714 0.063726,0.880592 0.042046,0.283432 0.1052143,0.556486 0.1883071,0.818243 0.083121,0.261755 0.1862626,0.512227 0.3088617,0.750498 0.1225955,0.238288 0.2646047,0.464376 0.4253407,0.677364 0.160743,0.212995 0.340213,0.412905 0.53774,0.598811 0.197519,0.185907 0.413098,0.357832 0.646052,0.514852 0.23295,0.157029 0.48328,0.29916 0.750297,0.4255 0.267023,0.126341 0.55074,0.236884 0.850465,0.330732 0.05072,0.01614 0.105159,0.03112 0.163115,0.04486 0.05781,0.01385 0.11959,0.02691 0.185113,0.03954 0.06539,0.01197 0.134937,0.02373 0.2085,0.03389 0.07346,0.01066 0.15125,0.01973 0.233309,0.02848 0.0819,0.01 0.168491,0.01667 0.259523,0.02373 0.09111,0.0091 0.186688,0.01305 0.287164,0.01869 0.100482,0.007 0.205804,0.0101 0.316195,0.01355 0.110405,0.0049 0.225876,0.0089 0.346659,0.0099 0.196912,0.0048 0.373327,0.0099 0.531891,0.01481 0.158565,0.0086 0.299274,0.01505 0.424748,0.0264 0.125472,0.01129 0.235727,0.02576 0.333378,0.04341 0.09765,0.01822 0.18271,0.03984 0.257799,0.06605 0.07502,0.02636 0.140225,0.05739 0.198014,0.09437 0.05759,0.03656 0.108246,0.0791 0.153994,0.128237 0.04593,0.04891 0.08676,0.104544 0.125781,0.167595 0.03915,0.06328 0.07605,0.133576 0.113349,0.212524 0.02676,0.05669 0.05041,0.110928 0.07095,0.163093 0.02004,0.05199 0.03687,0.102345 0.05041,0.151204 0.01336,0.04892 0.02378,0.09635 0.03037,0.143277 0.0088,0.04702 0.01032,0.09317 0.01032,0.139311 0,0.0464 -0.0044,0.09247 -0.01032,0.139308 -0.0088,0.04702 -0.01695,0.09437 -0.03037,0.14328 -0.01331,0.04885 -0.03037,0.09905 -0.05041,0.1512 -0.02004,0.05199 -0.04363,0.10631 -0.07095,0.163103 -0.04066,0.08525 -0.07925,0.160788 -0.11994,0.227879 -0.04091,0.06688 -0.08326,0.125656 -0.130939,0.17677 -0.04798,0.05098 -0.100763,0.0947 -0.162424,0.131996 -0.06182,0.03711 -0.131998,0.06816 -0.214403,0.09361 -0.08231,0.02573 -0.176884,0.04575 -0.28686,0.06163 -0.109972,0.01605 -0.235437,0.02714 -0.379808,0.0356 -0.144367,0.0099 -0.307638,0.0132 -0.493237,0.01642 -0.185592,0.0038 -0.393508,0.0047 -0.627165,0.0041 -0.238829,-4.06e-4 -0.457669,-0.0037 -0.660498,-0.0099 -0.202831,-0.0068 -0.389652,-0.013 -0.564435,-0.02479 -0.174794,-0.01145 -0.337562,-0.02658 -0.492281,-0.04643 -0.154718,-0.01933 -0.301386,-0.04337 -0.443995,-0.07248 -0.142609,-0.02898 -0.28115,-0.06372 -0.419622,-0.104035 -0.138462,-0.04068 -0.276847,-0.0869 -0.419126,-0.140266 C 11.596363,57.957208 11.45018,57.897187 11.29611,57.829331 11.142512,57.761251 10.980565,57.68577 10.806749,57.601765 10.561934,57.481155 10.322144,57.347518 10.090383,57.20064 9.8595305,57.052781 9.6357905,56.892674 9.4209378,56.720398 9.2068097,56.547819 9.0008422,56.363385 8.8046333,56.167841 8.6087999,55.972116 8.4223453,55.765471 8.2465058,55.548796 8.0708675,55.331901 7.9056446,55.105193 7.7519073,54.869514 7.598166,54.633822 7.4559103,54.389173 7.3260034,54.136627 7.1960958,53.884084 7.0785369,53.623629 6.9741905,53.356338 6.8698439,53.089054 6.7787104,52.814932 6.7016543,52.535037 c -0.037778,-0.137204 -0.070412,-0.291021 -0.097978,-0.457194 -0.027553,-0.166174 -0.050046,-0.344715 -0.067487,-0.531378 -0.017467,-0.186657 -0.029865,-0.381447 -0.037314,-0.580107 -0.00742,-0.198668 -0.00995,-0.401211 -0.00744,-0.603392 0.00265,-0.202182 0.00987,-0.404005 0.022111,-0.601218 0.012269,-0.197216 0.029387,-0.389828 0.051356,-0.573598 0.021971,-0.183764 0.04871,-0.358692 0.080252,-0.520526 0.031523,-0.161835 0.067883,-0.310584 0.1088959,-0.442001 0.1115987,-0.357414 0.2399652,-0.698932 0.3849396,-1.024433 0.1449743,-0.325492 0.3065571,-0.634964 0.4845891,-0.928246 0.1780319,-0.293285 0.3725093,-0.570389 0.5832851,-0.831165 0.2107775,-0.26078 0.4378392,-0.505222 0.6810337,-0.733199 0.2431972,-0.227976 0.5025343,-0.439472 0.7778353,-0.634343 0.2753084,-0.194872 0.566583,-0.373117 0.873687,-0.534596 0.307097,-0.16147 0.630006,-0.306175 0.96859,-0.433957 0.338569,-0.127781 0.692804,-0.238641 1.062531,-0.33243 0.18418,-0.04688 0.373869,-0.08681 0.567037,-0.120402 0.193174,-0.03366 0.389842,-0.06068 0.588004,-0.081 0.198164,-0.02038 0.397822,-0.03434 0.596968,-0.04192 0.199149,-0.0099 0.397792,-0.0099 0.593928,-0.0045 0.196133,0.0069 0.389768,0.01704 0.578894,0.03468 0.189122,0.01825 0.373736,0.04209 0.551844,0.07277 0.178111,0.03077 0.349712,0.06743 0.512807,0.110643 0.163095,0.04303 0.31768,0.09252 0.46177,0.148025 0.01767,0.0088 0.03398,0.01106 0.04952,0.01207 0.016,0.0019 0.03106,-1.65e-4 0.04551,-0.0064 0.01445,-0.0062 0.02856,-0.01254 0.04243,-0.02441 0.01374,-0.01138 0.02744,-0.02656 0.04143,-0.04602 0.01358,-0.01898 0.02739,-0.04192 0.04165,-0.06972 0.01393,-0.02711 0.02844,-0.05886 0.04348,-0.0953 0.01502,-0.03617 0.03079,-0.07747 0.04722,-0.123389 0.0166,-0.04625 0.03373,-0.09707 0.05185,-0.153534 0.03621,-0.111979 0.08215,-0.235848 0.135795,-0.368335 0.05376,-0.132491 0.114727,-0.273604 0.18182,-0.420043 0.06688,-0.146442 0.140076,-0.298226 0.217193,-0.45207 0.07726,-0.153851 0.158354,-0.309755 0.24195,-0.464435 0.08373,-0.154689 0.169541,-0.308151 0.256072,-0.457124 0.08655,-0.148973 0.173639,-0.29344 0.259566,-0.430144 0.08607,-0.136689 0.170644,-0.265611 0.252416,-0.383471 0.08162,-0.117871 0.160576,-0.224685 0.234651,-0.317155 0.178271,-0.222564 0.371409,-0.437494 0.578,-0.64402 0.206597,-0.206518 0.426631,-0.404636 0.658692,-0.593583 0.23207,-0.188938 0.476173,-0.368705 0.730879,-0.538522 0.254694,-0.169814 0.520007,-0.32968 0.794503,-0.47882 0.274492,-0.149147 0.558168,-0.287569 0.849609,-0.414496 0.291442,-0.126927 0.590638,-0.242361 0.896191,-0.345525 0.305547,-0.103162 0.617435,-0.194064 0.934241,-0.271922 0.316801,-0.07803 0.638533,-0.142678 0.963755,-0.193685 0.15779,-0.02487 0.330004,-0.04621 0.513586,-0.0639 0.183584,-0.01802 0.378521,-0.03228 0.58176,-0.04298 0.203236,-0.01117 0.414771,-0.01866 0.631527,-0.02253 0.216754,-0.0054 0.438745,-0.0064 0.662904,-0.0029 0.224143,0.0034 0.450463,0.0099 0.675868,0.0181 0.225411,0.0099 0.449919,0.02164 0.670463,0.03775 0.220528,0.01609 0.437094,0.03477 0.646627,0.05713 0.209529,0.02232 0.412026,0.04826 0.60442,0.07701 l 0.165512,0.02492 0.165517,0.02492 0.165519,0.02492 0.165515,0.02492 0.165523,0.02492 0.165518,0.02492 0.165515,0.02492 0.165516,0.02492 0.02243,-0.03269 0.02242,-0.03269 0.02243,-0.03269 0.02242,-0.03269 0.02243,-0.03269 0.02243,-0.03269 0.02242,-0.03269 0.02243,-0.03269 c 0.132736,-0.192107 0.28101,-0.380992 0.442833,-0.565387 0.161832,-0.18439 0.337222,-0.364295 0.524212,-0.53843 0.186981,-0.174131 0.385557,-0.342495 0.593748,-0.503815 0.208197,-0.16132 0.426009,-0.315588 0.65147,-0.461539 0.225459,-0.145947 0.458563,-0.283572 0.697343,-0.411601 0.238776,-0.12803 0.483236,-0.246461 0.731388,-0.354012 0.248157,-0.107551 0.500024,-0.204233 0.753608,-0.288754 0.253592,-0.08458 0.508915,-0.156896 0.763995,-0.215845 0.1094,-0.02553 0.210588,-0.048 0.30668,-0.06765 0.09605,-0.01968 0.187099,-0.03711 0.276145,-0.05203 0.08894,-0.01493 0.17614,-0.02732 0.264414,-0.03808 0.08822,-0.01066 0.177721,-0.01875 0.271495,-0.02522 0.09381,-0.0083 0.19184,-0.01086 0.297373,-0.01321 0.105524,-0.0035 0.218495,-0.0046 0.342051,-0.0038 0.123562,5.96e-4 0.257695,0.0036 0.405544,0.0081 0.147858,0.0045 0.309429,0.0099 0.487854,0.01388 0.225886,0.0097 0.436439,0.01672 0.635299,0.02801 0.198863,0.01149 0.386026,0.02589 0.565115,0.04277 0.17909,0.01738 0.350117,0.03774 0.516701,0.06222 0.166589,0.02456 0.328733,0.05277 0.490079,0.08593 0.161351,0.03329 0.321885,0.071 0.48525,0.113935 0.163364,0.04305 0.329558,0.09183 0.502197,0.146528 0.172645,0.0549 0.351746,0.115723 0.540942,0.18359 0.189194,0.0679 0.388464,0.142659 0.60146,0.225108 0.307701,0.119115 0.610996,0.252776 0.909667,0.400786 0.298673,0.14801 0.592718,0.310371 0.881898,0.486869 0.289174,0.176504 0.573492,0.367144 0.852707,0.571735 0.279214,0.204581 0.553327,0.423109 0.822107,0.655363 0.268777,0.232264 0.532219,0.478261 0.790093,0.737789 0.257873,0.259529 0.510175,0.532593 0.756661,0.818981 0.246496,0.286391 0.487172,0.586119 0.721818,0.898962 0.234641,0.312847 0.463243,0.63882 0.685561,0.977711 0.05089,0.07791 0.101829,0.155153 0.151841,0.231242 0.04977,0.07631 0.09921,0.150876 0.146994,0.223473 0.04803,0.07232 0.09421,0.142982 0.138565,0.210261 0.04416,0.06712 0.08675,0.131442 0.126526,0.191591 0.03991,0.06012 0.07708,0.116292 0.110892,0.167501 0.03397,0.05107 0.06446,0.09749 0.09172,0.137948 0.02678,0.0407 0.04986,0.075 0.06902,0.102945 0.0188,0.02775 0.03328,0.04895 0.04215,0.06265 0.01647,0.02386 0.03149,0.04408 0.04736,0.06202 0.01611,0.0178 0.03291,0.03224 0.05251,0.04332 0.01965,0.01133 0.04268,0.01938 0.07127,0.02474 0.02815,0.0065 0.06197,0.0089 0.102854,0.0069 0.04116,-0.002 0.08948,-0.0083 0.147808,-0.01448 0.05812,-0.0099 0.126147,-0.01961 0.205962,-0.03472 0.07967,-0.01512 0.17154,-0.03375 0.277348,-0.05603 0.105813,-0.022 0.225717,-0.04808 0.361921,-0.07732 0.199315,-0.04279 0.421431,-0.08056 0.66036,-0.113063 0.238936,-0.03259 0.494663,-0.05944 0.761215,-0.08141 0.266561,-0.02171 0.543926,-0.03878 0.82613,-0.04968 0.282201,-0.01131 0.569223,-0.01763 0.855069,-0.01839 0.285857,-7.65e-4 0.570543,0.0049 0.848062,0.01343 0.277533,0.01 0.547903,0.02517 0.805112,0.04557 0.257211,0.02036 0.501273,0.04652 0.72618,0.07756 0.224922,0.03137 0.430689,0.06767 0.61132,0.109591 0.262268,0.061 0.514783,0.125725 0.758507,0.195198 0.243718,0.06965 0.478647,0.143525 0.705755,0.222632 0.227107,0.07906 0.446383,0.163283 0.658795,0.253008 0.212421,0.08965 0.417979,0.185005 0.617644,0.286323 0.199655,0.101312 0.393426,0.208681 0.582268,0.322574 0.188842,0.113892 0.372754,0.234324 0.552708,0.361775 0.179943,0.12745 0.355944,0.261929 0.528931,0.403913 0.172992,0.141999 0.34299,0.291493 0.510959,0.448995 0.180415,0.16918 0.351767,0.341835 0.514474,0.518746 0.162712,0.176905 0.316785,0.358062 0.462645,0.544242 0.145854,0.186181 0.283484,0.37739 0.413334,0.574387 0.12984,0.197008 0.251883,0.399813 0.366567,0.609183 0.114685,0.209371 0.221984,0.425313 0.322358,0.648599 0.100362,0.223286 0.193776,0.453918 0.280665,0.692666 0.08683,0.238749 0.167267,0.485617 0.241531,0.741378 0.07411,0.255749 0.14245,0.520396 0.204946,0.794709 0.02171,0.09614 0.0417,0.189848 0.05995,0.283045 0.01834,0.09326 0.03434,0.185911 0.04913,0.280204 0.01463,0.0943 0.0277,0.190172 0.03961,0.289678 0.01153,0.09951 0.02163,0.202631 0.03092,0.311437 0.0099,0.108802 0.01665,0.223286 0.02309,0.345496 0.0085,0.122212 0.01168,0.252147 0.01645,0.391858 0.0057,0.139712 0.0099,0.289204 0.01073,0.450513 0.0035,0.161311 0.0059,0.334445 0.0075,0.521464 l 0.0021,0.23721 0.0021,0.237209 0.0021,0.237207 0.0021,0.237205 0.0021,0.237215 0.0021,0.237209 0.0021,0.237206 0.0021,0.237209 0.0774,0.08361 0.0774,0.08359 0.07739,0.0836 0.07738,0.0836 0.07741,0.0836 0.07736,0.0836 0.07744,0.0836 0.07738,0.0836 c 0.21087,0.227765 0.407201,0.454695 0.589342,0.681603 0.182139,0.226903 0.350098,0.453787 0.504204,0.681466 0.154111,0.22766 0.294389,0.456116 0.421155,0.686164 0.126768,0.230043 0.240041,0.461679 0.340163,0.695706 0.10012,0.234041 0.187083,0.470462 0.261242,0.710097 0.07398,0.239631 0.135503,0.48247 0.184395,0.729318 0.04891,0.246843 0.0854,0.497699 0.109612,0.753368 0.02442,0.255668 0.03633,0.516163 0.03669,0.782268 4.01e-4,0.212021 -0.0086,0.418182 -0.02102,0.619485 -0.01439,0.201286 -0.03651,0.397723 -0.06664,0.59027 -0.03013,0.192546 -0.06834,0.381207 -0.114594,0.566974 -0.04656,0.185764 -0.101074,0.368634 -0.164413,0.549584 -0.06355,0.180951 -0.135321,0.359992 -0.216302,0.538093 -0.08088,0.17811 -0.170947,0.355299 -0.270244,0.532519 -0.09932,0.177242 -0.207952,0.354526 -0.326272,0.53286 -0.118316,0.178316 -0.246321,0.357687 -0.384349,0.539074 -0.219535,0.288496 -0.457515,0.559877 -0.712622,0.813585 -0.255097,0.253705 -0.527315,0.489745 -0.815318,0.707565 -0.288014,0.217823 -0.591802,0.417426 -0.910063,0.598263 -0.318259,0.180838 -0.65098,0.342916 -0.996824,0.485669 -0.345861,0.142757 -0.704842,0.2662 -1.075633,0.369781 -0.370779,0.103579 -0.753377,0.187296 -1.146449,0.250607 -0.393069,0.06353 -0.796608,0.106199 -1.209299,0.128135 -0.41269,0.02173 -0.834528,0.02301 -1.264183,0.0031 -0.171711,-0.01 -0.350578,-0.02029 -0.533777,-0.03593 -0.183203,-0.0159 -0.370749,-0.03466 -0.559827,-0.05692 -0.189083,-0.02208 -0.379693,-0.04753 -0.569031,-0.07507 -0.189326,-0.02754 -0.37739,-0.05781 -0.561354,-0.09019 -0.18397,-0.0324 -0.363855,-0.06633 -0.536842,-0.102339 -0.172985,-0.0357 -0.339074,-0.07303 -0.495462,-0.111508 -0.156377,-0.03859 -0.303056,-0.07792 -0.437211,-0.117724 -0.134161,-0.04009 -0.255813,-0.08033 -0.36213,-0.120976 -0.03824,-0.01436 -0.0828,-0.03076 -0.133006,-0.04817 -0.04998,-0.01743 -0.105888,-0.03573 -0.165973,-0.05546 -0.06003,-0.01923 -0.124559,-0.03986 -0.192317,-0.06073 -0.06775,-0.02073 -0.138808,-0.0421 -0.212037,-0.06398 -0.07312,-0.02149 -0.148636,-0.04348 -0.225106,-0.06532 -0.07665,-0.02165 -0.154054,-0.04349 -0.231585,-0.06471 -0.07761,-0.02116 -0.155037,-0.04202 -0.231399,-0.0626 -0.07659,-0.02 -0.15161,-0.03975 -0.224606,-0.0579 -0.583093,-0.146832 -1.157587,-0.266615 -1.721981,-0.359539 -0.564392,-0.09299 -1.118707,-0.158998 -1.661436,-0.198418 -0.542736,-0.03955 -1.073897,-0.05202 -1.592005,-0.03874 -0.518113,0.01353 -1.023164,0.05405 -1.513689,0.120222 -0.490506,0.06622 -0.966493,0.159029 -1.426457,0.277714 -0.459961,0.118688 -0.9039,0.263441 -1.330338,0.434034 -0.426433,0.170586 -0.83538,0.367031 -1.225328,0.589131 -0.389951,0.222085 -0.760918,0.469833 -1.111421,0.743021 -0.03971,0.03106 -0.0856,0.06797 -0.136575,0.110217 -0.05096,0.04206 -0.107377,0.08975 -0.16779,0.141579 -0.06045,0.05154 -0.124916,0.107787 -0.192449,0.167065 -0.06745,0.05908 -0.138077,0.121846 -0.210557,0.186693 -0.07223,0.06459 -0.146864,0.131996 -0.222083,0.200444 -0.0752,0.06866 -0.151285,0.138222 -0.227071,0.208323 -0.07594,0.07026 -0.15132,0.140549 -0.225492,0.210347 -0.07401,0.06991 -0.146985,0.138954 -0.217352,0.206479 -0.237319,0.22777 -0.469692,0.439911 -0.698057,0.636894 -0.228366,0.196995 -0.452715,0.378839 -0.673994,0.546024 -0.221284,0.167183 -0.439483,0.319713 -0.655554,0.458068 -0.216072,0.138354 -0.429995,0.262533 -0.64272,0.373023 -0.212722,0.110495 -0.424247,0.207297 -0.635503,0.290902 -0.211255,0.08374 -0.422243,0.154007 -0.633894,0.211692 -0.211651,0.05746 -0.423978,0.102663 -0.637905,0.135401 -0.21393,0.03299 -0.429465,0.05342 -0.64754,0.0622 -0.08101,0.0043 -0.160142,0.0072 -0.237062,0.0087 -0.07708,0.0016 -0.151754,0.0016 -0.224514,4.08e-4 -0.07253,-0.0013 -0.143445,-0.0039 -0.212095,-0.0079 -0.06888,-0.004 -0.135263,-0.0094 -0.199848,-0.01216 -0.06433,-0.0068 -0.127149,-0.0114 -0.187725,-0.0188 -0.06067,-0.0096 -0.119143,-0.01587 -0.175755,-0.02533 -0.05658,-0.0099 -0.111254,-0.01972 -0.163953,-0.03167 -0.05269,-0.01148 -0.103459,-0.02437 -0.15229,-0.03798 z m -4.91637,-17.48682 c 0.110991,-0.07407 0.226468,-0.147271 0.345949,-0.218898 0.119478,-0.07164 0.242958,-0.141852 0.369936,-0.210445 0.12698,-0.06881 0.257465,-0.135551 0.390952,-0.20065 0.133482,-0.06487 0.269974,-0.128385 0.408974,-0.189579 0.139005,-0.06142 0.280522,-0.120336 0.424041,-0.177175 0.143527,-0.05676 0.289062,-0.111412 0.436115,-0.16347 0.147051,-0.05186 0.295628,-0.101611 0.445216,-0.148444 0.149597,-0.04696 0.300204,-0.091 0.451346,-0.132116 0.08076,-0.02184 0.159503,-0.0419 0.237616,-0.06035 0.07827,-0.01846 0.155647,-0.03444 0.234196,-0.04934 0.07867,-0.01471 0.158101,-0.02782 0.240236,-0.0397 0.08198,-0.01148 0.166857,-0.0216 0.255748,-0.03078 0.08881,-0.0099 0.181931,-0.01646 0.280719,-0.02262 0.09881,-0.0082 0.203328,-0.01131 0.315171,-0.01569 0.111853,-0.0054 0.231016,-0.0094 0.359068,-0.0099 0.128062,-0.0029 0.265026,-0.0047 0.412458,-0.0055 0.20388,-0.0011 0.393355,4.02e-4 0.571184,0.0057 0.177824,0.0052 0.344001,0.01085 0.501283,0.02042 0.157285,0.01002 0.305676,0.02304 0.447924,0.03983 0.142256,0.01693 0.278375,0.03716 0.411115,0.06216 0.132741,0.02483 0.262108,0.05389 0.390847,0.08723 0.128743,0.03378 0.256867,0.07192 0.387126,0.115803 0.130265,0.04352 0.262667,0.09266 0.399959,0.147327 0.137293,0.05484 0.279482,0.115181 0.429325,0.181938 0.06954,0.03111 0.13169,0.05811 0.188014,0.08188 0.05641,0.024 0.106645,0.04402 0.152075,0.06149 0.0455,0.01727 0.08604,0.03116 0.122642,0.04156 0.03649,0.01091 0.06976,0.01852 0.09971,0.02309 0.03014,0.0061 0.0573,0.0083 0.08336,0.0069 0.02593,-0.0013 0.04956,-0.0065 0.0732,-0.01135 0.02374,-0.0085 0.0466,-0.01571 0.07001,-0.02681 0.02366,-0.01143 0.04753,-0.02575 0.07279,-0.04167 0.189899,-0.120787 0.370422,-0.232996 0.543539,-0.337509 0.173118,-0.104532 0.338833,-0.201364 0.499126,-0.291407 0.160285,-0.09001 0.315143,-0.173296 0.466534,-0.250657 0.151394,-0.07748 0.299331,-0.14882 0.445773,-0.215274 0.146448,-0.06628 0.291404,-0.127915 0.436835,-0.185268 0.145438,-0.05713 0.291358,-0.11059 0.439727,-0.160624 0.148367,-0.04979 0.299197,-0.09681 0.454441,-0.141341 0.155241,-0.04429 0.314911,-0.08671 0.480983,-0.127432 l 0.09676,-0.02396 0.09677,-0.02395 0.09676,-0.02393 0.09677,-0.02395 0.09677,-0.02396 0.09677,-0.02395 0.09677,-0.02395 0.09677,-0.02395 0.0099,-0.160652 0.01,-0.160651 0.0099,-0.160649 0.0099,-0.160658 0.0099,-0.160647 0.01,-0.160658 0.0099,-0.160648 0.0099,-0.160649 c 0.01325,-0.248661 0.03157,-0.487928 0.05457,-0.719315 0.02318,-0.231408 0.051,-0.454927 0.08476,-0.672095 0.03366,-0.217166 0.07237,-0.427984 0.117554,-0.633967 0.04488,-0.205976 0.09579,-0.407112 0.153064,-0.604936 0.05696,-0.197833 0.120813,-0.392324 0.191204,-0.585033 0.07061,-0.192704 0.147563,-0.383601 0.231971,-0.574221 0.08453,-0.190613 0.176063,-0.380944 0.275384,-0.57251 0.09933,-0.191553 0.206316,-0.384355 0.321429,-0.579905 0.06471,-0.110324 0.142121,-0.227786 0.229136,-0.349926 0.08693,-0.122136 0.183864,-0.248951 0.288141,-0.377942 0.104279,-0.129006 0.215998,-0.260209 0.332735,-0.391135 0.11674,-0.13093 0.238498,-0.261581 0.36289,-0.389494 0.124387,-0.127904 0.251403,-0.253069 0.378636,-0.373023 0.127238,-0.119943 0.254697,-0.234675 0.379967,-0.341719 0.125273,-0.107041 0.248363,-0.206401 0.366873,-0.295608 0.118504,-0.0891 0.232424,-0.168227 0.339357,-0.234645 0.04156,-0.02607 0.08252,-0.05149 0.122066,-0.07712 0.03963,-0.02555 0.07778,-0.04997 0.114083,-0.07411 0.03624,-0.02425 0.07131,-0.0476 0.10359,-0.0699 0.03267,-0.02221 0.06307,-0.0434 0.0906,-0.06365 0.02757,-0.01962 0.05296,-0.03864 0.07498,-0.05553 0.02202,-0.01703 0.04134,-0.03225 0.05683,-0.04544 0.01592,-0.01316 0.0279,-0.02474 0.03631,-0.03375 0.0099,-0.0099 0.01295,-0.01609 0.01329,-0.01993 0.0029,-0.02616 -0.01899,-0.0803 -0.05931,-0.157177 -0.0406,-0.07682 -0.09984,-0.175799 -0.17396,-0.291285 -0.0741,-0.115475 -0.163006,-0.24731 -0.26203,-0.389483 C 48.411255,40.126145 48.301992,39.973633 48.186889,39.8168 48.07111,39.659928 47.950185,39.498781 47.827839,39.339334 47.704727,39.179959 47.580971,39.022218 47.460225,38.872178 47.339105,38.722133 47.22135,38.579804 47.111031,38.451215 47.000683,38.32263 46.897775,38.207762 46.806701,38.112649 46.606923,37.90402 46.411503,37.708826 46.218604,37.525945 46.025672,37.343094 45.835277,37.172529 45.645546,37.013151 45.455738,36.853799 45.266681,36.705606 45.076444,36.567462 44.886203,36.429327 44.694786,36.301247 44.50035,36.182084 44.305911,36.062915 44.108448,35.95268 43.906116,35.850233 c -0.202337,-0.102444 -0.409533,-0.197104 -0.623455,-0.285094 -0.213922,-0.08794 -0.434553,-0.169324 -0.663745,-0.245123 -0.229184,-0.07595 -0.466939,-0.14608 -0.715096,-0.211955 -0.103101,-0.02714 -0.200671,-0.05202 -0.294601,-0.07449 -0.09394,-0.02246 -0.184206,-0.04245 -0.272739,-0.06088 -0.08843,-0.01831 -0.17527,-0.03396 -0.262133,-0.04838 -0.08676,-0.0139 -0.17384,-0.02636 -0.262807,-0.03663 -0.08888,-0.01076 -0.179924,-0.01924 -0.27475,-0.02672 -0.09475,-0.0098 -0.193515,-0.01333 -0.297955,-0.01851 -0.104445,-0.0063 -0.214628,-0.0099 -0.332438,-0.0112 -0.117815,-0.0034 -0.243246,-0.0056 -0.378183,-0.0067 -0.155164,-0.0013 -0.293714,-0.0019 -0.419073,-0.0012 -0.125356,5.31e-4 -0.237513,0.0027 -0.339884,0.0066 -0.10236,0.0039 -0.194936,0.0098 -0.281131,0.01379 -0.08633,0.0084 -0.165995,0.01483 -0.242829,0.02598 -0.077,0.01104 -0.150696,0.02436 -0.224983,0.04067 -0.07411,0.0164 -0.149013,0.0353 -0.227581,0.0579 -0.07869,0.02259 -0.160968,0.04875 -0.250626,0.07867 -0.08957,0.02983 -0.186551,0.06377 -0.294111,0.101862 -0.189705,0.06718 -0.371789,0.139501 -0.547037,0.217175 -0.17525,0.07779 -0.343659,0.160849 -0.506014,0.250155 -0.162358,0.08922 -0.31865,0.18478 -0.46968,0.287023 -0.151016,0.10225 -0.296769,0.211277 -0.438023,0.327737 -0.141252,0.116463 -0.278017,0.240355 -0.411064,0.372324 -0.133043,0.131966 -0.262388,0.272012 -0.388792,0.420778 -0.126411,0.148757 -0.249886,0.30624 -0.371209,0.473078 -0.12133,0.166845 -0.240508,0.343053 -0.358311,0.529274 -0.07182,0.113757 -0.139049,0.214011 -0.205363,0.301504 -0.06617,0.08735 -0.131862,0.162202 -0.200781,0.224865 -0.06914,0.06285 -0.141201,0.113279 -0.220983,0.152576 -0.07964,0.03947 -0.167055,0.0671 -0.265962,0.08469 -0.09891,0.01753 -0.20944,0.0243 -0.335725,0.02089 -0.126294,-0.004 -0.26833,-0.01626 -0.430259,-0.03834 -0.161937,-0.02197 -0.343753,-0.05358 -0.549585,-0.09314 -0.205838,-0.03982 -0.435692,-0.08769 -0.693685,-0.143578 -0.177552,-0.03862 -0.362561,-0.07337 -0.552883,-0.105095 -0.190325,-0.03178 -0.385943,-0.05968 -0.584725,-0.08455 -0.198779,-0.02474 -0.400711,-0.0459 -0.603653,-0.06338 -0.202936,-0.01761 -0.40688,-0.0314 -0.609674,-0.04134 -0.202786,-0.01023 -0.404434,-0.01647 -0.602777,-0.01874 -0.198332,-0.0031 -0.393374,-0.0012 -0.582972,0.0059 -0.189586,0.0071 -0.373714,0.01478 -0.550246,0.02824 -0.176532,0.0133 -0.345452,0.03125 -0.504616,0.05283 -0.414798,0.05657 -0.808939,0.13196 -1.183114,0.226392 -0.374186,0.09439 -0.728407,0.208013 -1.063353,0.34132 -0.334947,0.133308 -0.650627,0.28635 -0.947712,0.459667 -0.297102,0.173326 -0.575614,0.366939 -0.836237,0.581416 -0.260621,0.214475 -0.503349,0.449811 -0.728873,0.706573 -0.225534,0.25676 -0.433854,0.534945 -0.625667,0.835135 -0.191817,0.300177 -0.367117,0.62235 -0.526597,0.967099 -0.159482,0.344739 -0.303134,0.712033 -0.431659,1.102472 l -0.03082,0.0932 -0.03082,0.09321 -0.03082,0.0932 -0.03082,0.09318 -0.03082,0.09321 -0.03082,0.09318 -0.03082,0.0932 -0.03082,0.0932 0.0723,0.06161 0.07228,0.06163 0.07231,0.0616 0.07229,0.06163 0.07229,0.06163 0.07231,0.06165 0.07228,0.06162 0.07231,0.06167 c 0.174584,0.147894 0.349394,0.303911 0.5241,0.46768 0.17471,0.163759 0.349324,0.335265 0.52352,0.514118 0.174199,0.178868 0.347993,0.365084 0.52105,0.558275 0.173057,0.193197 0.345387,0.393372 0.516672,0.600133 0.171292,0.206766 0.341524,0.420129 0.510397,0.639706 0.168886,0.21957 0.336404,0.445366 0.502244,0.676981 0.165836,0.231617 0.330003,0.469067 0.492161,0.711967 0.162177,0.242902 0.322341,0.491254 0.480216,0.744661 0.08795,0.141312 0.187426,0.308385 0.294962,0.494964 0.107549,0.186585 0.223251,0.39269 0.343874,0.61206 0.120643,0.219373 0.246203,0.452009 0.373483,0.691675 0.12728,0.239654 0.256267,0.486324 0.383756,0.73377 0.127486,0.247447 0.253457,0.495655 0.374708,0.738388 0.121248,0.242729 0.237771,0.47998 0.346354,0.705492 0.108576,0.225524 0.209196,0.439309 0.298661,0.635116 0.08935,0.195811 0.167756,0.373631 0.23167,0.527232 l 0.03749,0.09017 0.03749,0.09017 0.03749,0.09017 0.03749,0.09017 0.03749,0.09017 0.03749,0.09017 0.03749,0.09017 0.03749,0.09017 0.100582,-0.106918 0.100593,-0.106921 0.10058,-0.106925 0.100584,-0.106923 0.100588,-0.106923 0.100578,-0.106925 0.100589,-0.106921 0.100587,-0.106921 c 0.05555,-0.05863 0.114879,-0.119949 0.177592,-0.182491 0.06292,-0.06269 0.128581,-0.126486 0.196523,-0.190885 0.06799,-0.06428 0.137956,-0.129254 0.208947,-0.193618 0.07121,-0.06419 0.142978,-0.128245 0.214858,-0.190697 0.07183,-0.06257 0.143669,-0.123472 0.214269,-0.182116 0.07086,-0.05851 0.140021,-0.114931 0.207169,-0.167897 0.06695,-0.05304 0.132031,-0.102619 0.193561,-0.148016 0.06169,-0.04546 0.119706,-0.08659 0.173453,-0.122482 z"
       id="path902"
       inkscape:connector-curvature="0"
       sodipodi:nodetypes="cssssssssssssssscssssssscssssssssssssssssssssssssssssssscssssssscssssssssssssssssssssssscsssssssccccccccccccccccsssssssssssssssssssssssssssssssssssssssscssssssscssssssssssssssssssssssssssssssssssssssssssssssscssssssssssssssssssssssssssssssscssssssscssssssssssssssscssssssscssssssssssssssssssssssssssssssssssssssscssssssssssssssssssssssscssssssssssssssssssssssssssssssscssssssssssssssssssssssssssssssssssssssscssssssscsssssssssssssssssssssssscccccccccccccccsssssssssssssssssssssssssssssssssssssssscssssssssssssssssssssssscssssssscssssssscccccccccccccccccssssssscssssssscssssssssssssssscssssssscssssssscsssssssssssssssssssssssccssssssssssssssssssssssscsssssssssssssssscccccccccccccccsssssssssssssssscssssssscssssssssssssssssssssssssssssssssssssssssssssssssssssssssssssssssccccccccccccccccssssssscsssssssccccccccccccccccssssssssc" />
    <path
       style="fill:#000000;fill-opacity:1;stroke:#000000;stroke-width:0.12265635;stroke-miterlimit:4;stroke-dasharray:none;stroke-opacity:1"
       d="M 40.52276,81.44267 C 40.4505,81.34315 40.372469,81.231031 40.293881,81.113585 40.215211,80.99613 40.13593,80.873344 40.06035,80.752521 39.98469,80.631713 39.912985,80.512859 39.849532,80.403248 39.785982,80.293662 39.730998,80.193313 39.688805,80.10951 l -0.07687,-0.152356 -0.07688,-0.152359 -0.07688,-0.152365 -0.07686,-0.152361 0.252865,-0.0076 0.25285,-0.0076 0.252863,-0.0076 0.252858,-0.0076 c 0.316348,-0.0095 0.752095,-0.05275 1.257622,-0.12649 0.505526,-0.07362 1.080849,-0.175725 1.676364,-0.29595 0.595511,-0.120203 1.211223,-0.258649 1.797536,-0.40532 0.586321,-0.14666 1.143227,-0.301539 1.621155,-0.454638 0.901374,-0.288738 1.748866,-0.616651 2.529602,-0.9754 0.780743,-0.358743 1.494726,-0.748311 2.129085,-1.160331 0.634361,-0.412022 1.189093,-0.846517 1.651333,-1.295112 0.462235,-0.448587 0.831972,-0.911281 1.096337,-1.379709 0.07009,-0.12399 0.142927,-0.239244 0.217435,-0.344223 0.07428,-0.104978 0.150573,-0.199672 0.226784,-0.282559 0.07643,-0.08289 0.152558,-0.153958 0.227637,-0.211664 0.075,-0.05749 0.148868,-0.102068 0.219979,-0.131517 0.101537,-0.04188 0.189052,-0.07115 0.283479,-0.08155 0.09443,-0.01095 0.195779,-0.0044 0.324978,0.0268 0.129201,0.03048 0.28625,0.08399 0.492077,0.16523 0.20584,0.08129 0.46045,0.19074 0.784778,0.332986 0.571455,0.250616 1.076053,0.455203 1.5475,0.621131 0.47145,0.165921 0.909749,0.293182 1.348607,0.389157 0.43887,0.0959 0.878296,0.160654 1.352003,0.201422 0.473701,0.04099 0.981684,0.05739 1.557653,0.05776 0.673066,4e-4 1.3797,-0.04515 2.092032,-0.130784 0.712336,-0.08575 1.430361,-0.211343 2.126191,-0.371421 0.695826,-0.160074 1.369474,-0.354497 1.993035,-0.577503 0.623565,-0.223005 1.197059,-0.474597 1.692591,-0.749028 l 0.19668,-0.108908 0.196682,-0.108923 0.196683,-0.108921 0.196681,-0.108916 0.02631,0.31603 0.0263,0.316019 0.02636,0.316041 0.02631,0.316023 c 0.01429,0.173813 0.02661,0.347442 0.03641,0.512477 0.01,0.165032 0.01735,0.321475 0.02165,0.460901 0.0061,0.139424 0.0086,0.261841 0.0071,0.358829 -0.0013,0.09697 -0.0069,0.168562 -0.01249,0.206286 -0.01652,0.08319 -0.165135,0.194316 -0.411777,0.323187 -0.246639,0.128871 -0.591167,0.275426 -0.999074,0.429311 -0.407908,0.153866 -0.87919,0.315053 -1.379346,0.473179 -0.500165,0.158126 -1.029198,0.313187 -1.552608,0.454816 -0.33003,0.08922 -0.603127,0.158641 -0.868109,0.212531 -0.264978,0.05403 -0.521839,0.09236 -0.819408,0.119824 -0.297567,0.02724 -0.635848,0.04387 -1.063647,0.05433 -0.4278,0.01034 -0.945129,0.01369 -1.600806,0.01574 -0.765882,0.0027 -1.412731,-0.0099 -1.981461,-0.03671 -0.568746,-0.02867 -1.059363,-0.0767 -1.512808,-0.149515 -0.453456,-0.07259 -0.869714,-0.171123 -1.289709,-0.301428 -0.420018,-0.129996 -0.843762,-0.292245 -1.312176,-0.49303 l -0.17808,-0.07653 -0.178091,-0.07652 -0.178093,-0.07652 -0.178087,-0.07655 -0.177374,0.197613 -0.177379,0.197614 -0.177373,0.197618 -0.177379,0.197606 c -0.398411,0.443864 -0.874612,0.881162 -1.41458,1.303639 -0.539963,0.422476 -1.1437,0.830128 -1.797182,1.21472 -0.653483,0.384578 -1.35672,0.746099 -2.095699,1.076313 -0.738975,0.330198 -1.513684,0.62909 -2.310122,0.888413 -0.385282,0.125452 -0.932003,0.277395 -1.546415,0.434791 -0.614413,0.157398 -1.296518,0.320254 -1.952567,0.467504 -0.656033,0.147254 -1.286008,0.278922 -1.796169,0.373945 -0.51016,0.09495 -0.900497,0.153416 -1.077277,0.15413 -0.05484,2.01e-4 -0.113744,-0.01479 -0.177024,-0.04498 -0.06347,-0.0302 -0.130781,-0.07557 -0.20238,-0.135855 -0.07164,-0.06038 -0.147272,-0.135728 -0.226909,-0.226016 -0.07948,-0.09028 -0.163222,-0.195483 -0.250627,-0.315489 z"
       id="path906"
       inkscape:connector-curvature="0"
       sodipodi:nodetypes="sssscccccccccssssssscssscsssssssssssscccccccsssscsssssssssssccccccccsssssssscssss" />
  </g>
  <g
     id="g865"
     inkscape:groupmode="layer"
     inkscape:label="Drill"
     style="display:inline"
     transform="translate(-0.92520759,-26.565639)" />
</svg>
